<?xml version="1.0" standalone="no"?>
<!DOCTYPE svg PUBLIC "-//W3C//DTD SVG 20010904//EN"
 "http://www.w3.org/TR/2001/REC-SVG-20010904/DTD/svg10.dtd">
<svg version="1.0" xmlns="http://www.w3.org/2000/svg"
 width="1372.000000pt" height="1372.000000pt" viewBox="0 0 1372.000000 1372.000000"
 preserveAspectRatio="xMidYMid meet">

<g transform="translate(0.000000,1372.000000) scale(0.100000,-0.100000)"
fill="#000000" stroke="none">
<path d="M7243 13705 c-8 -22 0 -27 30 -20 39 10 43 35 6 35 -17 0 -32 -6 -36
-15z"/>
<path d="M7420 13710 c0 -5 11 -17 25 -26 34 -22 163 -24 176 -3 22 35 11 39
-96 39 -62 0 -105 -4 -105 -10z"/>
<path d="M6415 13641 c3 -5 -3 -12 -12 -14 -11 -3 -8 -5 9 -6 20 -1 26 3 22
14 -4 8 -10 15 -16 15 -5 0 -7 -4 -3 -9z"/>
<path d="M6838 13640 c-4 -14 -111 -40 -123 -30 -24 19 -206 13 -278 -11 -19
-6 -36 -5 -50 2 -16 9 -23 8 -31 -3 -8 -11 -41 -17 -126 -21 -63 -3 -151 -8
-194 -11 -44 -3 -82 -2 -86 3 -3 5 -17 12 -32 16 -21 5 -31 1 -48 -18 -17 -20
-39 -28 -94 -37 -39 -7 -96 -17 -126 -22 -30 -6 -65 -11 -77 -10 -13 0 -23 -5
-23 -10 0 -7 -5 -6 -13 1 -8 6 -17 7 -21 3 -4 -4 -31 -8 -59 -9 -112 -4 -218
-20 -235 -36 -9 -8 -44 -18 -77 -22 -77 -9 -97 -14 -90 -26 4 -5 -2 -9 -12 -9
-10 0 -37 -9 -58 -21 -22 -11 -63 -23 -92 -26 -33 -4 -59 -13 -69 -24 -10 -11
-24 -19 -32 -19 -7 0 -28 -6 -45 -14 -45 -20 -137 -40 -169 -37 -19 2 -38 -8
-66 -33 -44 -40 -58 -45 -42 -17 11 21 1 34 -16 23 -6 -4 -13 -15 -17 -24 -10
-27 -76 -50 -124 -44 -39 5 -43 4 -49 -19 -3 -14 -11 -25 -16 -25 -6 0 -21
-11 -34 -25 -28 -31 -54 -33 -54 -4 0 33 -41 21 -53 -16 -14 -40 -42 -69 -61
-62 -9 4 -16 2 -16 -3 0 -5 -19 -15 -42 -22 -24 -6 -46 -16 -49 -21 -3 -5 -25
-11 -48 -14 -23 -3 -41 -11 -41 -18 0 -7 -12 -16 -27 -20 -16 -3 -43 -18 -61
-31 -33 -25 -52 -25 -52 2 0 9 -11 14 -35 14 -19 0 -35 -4 -35 -10 0 -5 5 -10
10 -10 14 0 50 -37 42 -44 -3 -3 -16 -6 -28 -6 -12 0 -29 -7 -38 -15 -8 -8
-19 -15 -24 -15 -5 0 -17 -9 -27 -20 -22 -24 -38 -25 -55 -5 -10 11 -36 15
-111 15 -88 0 -99 -2 -99 -18 0 -15 9 -17 80 -14 68 4 81 2 86 -13 10 -24 -17
-46 -59 -48 -22 -2 -47 -12 -64 -28 -15 -14 -40 -31 -55 -39 -16 -7 -28 -19
-28 -27 0 -7 -5 -13 -11 -13 -6 0 -26 -12 -46 -27 l-35 -27 7 43 c7 42 -2 60
-27 61 -12 0 -9 -69 3 -92 9 -17 8 -24 -6 -34 -9 -7 -14 -17 -10 -23 4 -7 -4
-11 -19 -11 -30 0 -77 -20 -91 -38 -6 -7 -16 -12 -22 -10 -5 2 -23 -10 -39
-26 -16 -15 -56 -46 -89 -67 -111 -72 -123 -83 -122 -104 2 -17 -3 -20 -40
-17 -41 2 -43 1 -43 -26 0 -25 -5 -29 -42 -38 -37 -8 -43 -13 -46 -36 -4 -32
-32 -39 -32 -9 0 20 -25 51 -41 51 -5 0 -9 -16 -9 -36 0 -23 -9 -47 -26 -70
-29 -37 -51 -47 -34 -14 13 24 11 24 -26 5 -16 -8 -39 -15 -51 -15 -15 0 -23
-6 -23 -18 0 -11 -25 -32 -67 -58 -56 -33 -69 -45 -71 -69 -2 -17 -8 -33 -13
-36 -6 -4 -6 -21 -1 -47 11 -48 9 -52 -31 -52 -29 0 -30 1 -13 19 22 25 11 45
-19 37 -13 -3 -25 -1 -27 5 -2 6 -23 13 -46 16 l-43 6 11 -28 c6 -16 9 -34 6
-42 -3 -7 1 -13 10 -13 11 0 13 -7 8 -27 -8 -32 -32 -63 -48 -63 -7 0 -29 -9
-51 -20 -43 -22 -85 -19 -65 5 12 15 6 35 -11 35 -5 0 -9 -20 -9 -45 0 -35 4
-45 16 -45 13 0 15 -6 8 -27 -4 -16 -7 -43 -7 -60 1 -18 -3 -33 -8 -33 -5 0
-9 -13 -9 -30 0 -20 -8 -35 -25 -46 -14 -9 -25 -23 -25 -30 0 -8 -9 -14 -19
-14 -29 0 -35 -18 -9 -22 l23 -3 -23 -13 c-13 -7 -35 -14 -49 -15 -20 -2 -29
-10 -34 -30 -10 -36 -27 -57 -57 -68 -15 -6 -22 -15 -18 -24 7 -19 1 -19 -29
1 -14 9 -25 13 -25 9 0 -4 -7 -1 -16 6 -15 12 -16 6 -13 -69 4 -79 3 -82 -18
-82 -12 0 -28 -6 -34 -13 -14 -14 -66 -11 -87 6 -9 7 -16 7 -24 -1 -16 -16 -2
-30 26 -25 32 6 66 -13 66 -37 0 -28 -50 -28 -57 0 -4 16 -8 18 -19 9 -17 -14
-18 -71 -2 -87 9 -9 6 -12 -14 -12 -34 0 -45 -18 -22 -35 15 -11 16 -15 5 -29
-17 -20 -31 -21 -31 -1 0 8 -5 15 -11 15 -6 0 -9 -17 -7 -42 2 -34 -1 -43 -14
-46 -13 -2 -18 3 -18 17 0 11 -5 23 -11 27 -8 5 -10 -6 -7 -34 3 -32 0 -42
-14 -45 -12 -4 -15 -11 -11 -28 3 -13 2 -21 -2 -17 -9 8 -35 -36 -35 -58 0 -8
-8 -14 -19 -14 -21 0 -37 -16 -42 -44 -4 -17 -6 -17 -29 7 -18 19 -28 23 -37
15 -17 -14 -16 -38 1 -38 19 0 28 -14 20 -34 -6 -15 -8 -15 -21 1 -12 16 -14
11 -10 -47 4 -57 1 -69 -20 -98 -20 -26 -29 -31 -50 -26 -24 6 -25 5 -20 -22
12 -60 12 -67 1 -71 -8 -2 -15 15 -19 47 -8 58 -39 104 -54 81 -6 -10 -5 -24
5 -42 17 -34 18 -81 2 -97 -9 -9 -8 -12 4 -12 23 0 31 -16 22 -43 l-8 -22 -7
25 -7 25 -1 -25 c-1 -14 -7 -45 -15 -70 -10 -35 -18 -46 -37 -48 -13 -2 -28
-8 -34 -13 -5 -5 -21 -9 -37 -9 -17 0 -31 -7 -38 -19 -17 -32 -12 -38 30 -37
40 1 46 -6 34 -38 -3 -9 -11 -13 -18 -9 -6 4 -22 9 -34 11 -22 3 -24 0 -21
-35 4 -52 -10 -141 -24 -150 -6 -4 -23 -6 -37 -5 -18 1 -28 -5 -35 -20 -13
-29 -45 -37 -45 -11 0 14 2 15 9 4 6 -9 11 -10 15 -2 11 17 -3 31 -30 31 -27
0 -31 -17 -9 -46 8 -10 15 -34 15 -52 0 -18 5 -42 11 -53 8 -16 7 -25 -5 -38
-9 -10 -14 -20 -11 -23 13 -12 -18 -95 -46 -126 -32 -35 -52 -36 -31 -2 11 18
9 20 -17 20 -32 0 -47 -14 -54 -50 -4 -23 -4 -22 -6 5 -2 40 -16 63 -24 41 -8
-20 2 -76 14 -76 4 0 9 -8 12 -17 3 -13 8 -9 17 15 11 30 13 32 25 15 7 -10
15 -35 19 -55 l7 -38 -51 0 c-27 0 -50 -4 -50 -10 0 -5 7 -10 15 -10 8 0 15
-4 15 -10 0 -5 -4 -10 -10 -10 -15 0 -12 -53 4 -76 12 -17 12 -22 0 -39 -8
-10 -14 -39 -14 -64 0 -71 -9 -91 -41 -98 -20 -4 -29 -12 -29 -24 0 -25 -16
-24 -23 1 -8 31 -27 24 -27 -11 0 -23 -5 -32 -20 -36 -12 -3 -19 -11 -17 -17
4 -12 8 -13 57 -15 l29 -1 -15 -42 c-27 -77 -54 -91 -54 -28 0 22 -4 40 -10
40 -14 0 -13 -73 2 -88 8 -8 8 -15 1 -24 -13 -15 -14 -158 -1 -174 15 -20 -24
-55 -70 -61 -53 -7 -54 -19 -1 -26 22 -3 43 -8 46 -11 10 -9 -22 -66 -34 -61
-8 3 -13 -4 -13 -18 0 -27 -17 -47 -42 -47 -22 0 -38 29 -38 69 0 17 -4 31
-10 31 -6 0 -10 -57 -10 -150 0 -82 3 -150 8 -150 17 0 42 -65 42 -108 0 -49
-29 -162 -42 -162 -4 0 -7 -58 -7 -129 1 -155 -10 -333 -22 -381 -14 -58 -15
-730 0 -765 13 -31 17 -219 5 -249 -3 -9 -12 -16 -20 -16 -13 0 -34 -30 -34
-49 0 -6 11 -11 24 -11 37 0 50 -25 48 -92 -3 -62 5 -90 18 -68 6 9 12 9 28
-1 26 -16 40 -5 25 20 -8 13 -7 22 6 40 16 21 23 22 62 16 24 -4 50 -12 56
-17 21 -17 46 -1 41 27 -4 18 -1 25 11 25 26 0 44 -16 36 -31 -6 -9 -3 -11 10
-6 9 4 23 3 30 -3 9 -7 27 -7 54 -1 32 7 41 6 41 -4 0 -24 20 -27 28 -4 7 19
10 20 15 5 4 -9 18 -21 32 -26 15 -6 25 -17 25 -30 0 -15 7 -20 24 -20 31 0
42 15 18 25 -15 6 -15 8 5 16 32 12 133 -11 133 -31 0 -11 5 -9 18 7 16 21 23
22 90 16 39 -3 72 -9 72 -14 0 -4 33 -7 73 -8 39 0 91 -3 115 -7 38 -6 42 -5
42 14 0 13 -11 27 -26 35 l-26 13 41 13 c23 6 56 9 75 6 24 -5 38 -2 49 10 17
16 22 10 18 -22 -3 -19 27 -16 37 4 9 15 14 14 48 -12 37 -28 37 -28 68 -11
64 37 81 37 113 0 16 -20 37 -34 50 -34 24 0 31 14 13 25 -5 3 -10 14 -10 23
0 12 3 13 12 4 21 -21 31 -13 25 18 -9 43 0 59 41 66 21 4 42 10 47 14 17 14
48 14 110 1 42 -10 64 -10 76 -3 20 13 91 -10 125 -40 11 -10 25 -18 31 -18 6
0 13 -5 15 -11 3 -9 10 -8 28 1 22 12 26 10 50 -19 18 -20 32 -29 43 -26 30
12 32 55 2 55 -15 0 -24 19 -18 38 6 17 43 15 63 -3 14 -13 19 -12 44 11 17
16 35 24 47 21 10 -3 22 -1 25 4 8 14 24 10 24 -6 0 -12 16 -15 88 -15 70 0
93 -4 117 -20 36 -24 121 -27 151 -5 12 8 49 19 83 24 33 5 66 13 72 16 5 4
15 2 22 -3 7 -6 25 -12 42 -14 23 -2 31 -10 39 -35 7 -26 14 -33 35 -33 46 0
72 -12 82 -36 4 -13 15 -24 23 -24 10 0 13 -6 10 -15 -9 -23 23 -18 36 5 6 11
17 20 25 20 18 0 19 -12 3 -29 -11 -10 6 -12 82 -10 73 1 95 -1 99 -12 2 -8 9
-17 15 -21 20 -14 121 -9 142 7 12 8 49 19 84 24 l62 10 63 -64 c35 -36 72
-65 82 -65 26 0 35 -10 23 -25 -15 -18 47 -26 165 -19 119 6 165 12 164 22 -4
27 3 52 16 52 8 0 19 9 25 20 9 16 14 18 29 8 15 -9 23 -9 33 0 10 7 18 8 24
2 6 -6 44 -14 85 -19 95 -12 106 -17 113 -47 5 -18 13 -24 35 -24 16 0 34 7
41 15 18 21 32 19 25 -5 -4 -14 -2 -20 9 -20 20 0 30 17 14 23 -8 3 -6 6 5 6
9 1 17 -3 17 -8 0 -17 31 -21 76 -9 29 8 48 9 52 3 4 -6 48 -11 98 -12 90 -3
93 -4 127 -38 40 -40 85 -47 104 -16 20 32 59 34 116 8 48 -23 59 -24 157 -18
63 4 112 3 122 -3 11 -7 21 -6 31 2 7 7 17 9 21 5 4 -4 29 -8 55 -9 26 0 53
-4 60 -8 10 -7 15 -1 12 16 0 4 11 11 25 14 34 9 74 -10 74 -36 0 -33 37 -24
62 15 36 55 79 59 99 8 8 -22 13 -24 42 -18 17 4 63 9 100 10 52 2 72 7 82 21
10 15 17 16 36 7 l24 -12 -25 -1 c-21 0 -22 -2 -9 -10 17 -10 71 -12 169 -8
l54 3 9 45 c4 25 11 76 15 115 6 62 9 70 31 75 l24 6 -27 17 c-14 10 -32 15
-38 11 -8 -5 -9 3 -4 26 8 43 13 47 36 32 35 -22 68 -14 102 24 25 26 44 37
76 41 40 5 52 15 33 28 -5 3 -12 1 -16 -5 -3 -5 -11 -10 -17 -10 -18 0 31 47
62 60 19 8 30 21 34 41 3 18 14 33 29 38 14 5 27 17 30 25 9 23 26 20 20 -4
-5 -17 0 -20 29 -20 19 0 39 5 46 12 15 15 16 74 2 83 -6 4 -4 17 5 36 15 28
25 34 54 29 8 -1 20 5 25 12 6 8 19 17 30 21 16 6 18 14 13 57 -3 27 -2 52 4
55 5 4 9 -3 9 -13 0 -13 9 -22 27 -27 23 -5 25 -8 12 -15 -14 -8 -15 -34 -11
-210 4 -175 3 -200 -11 -200 -21 0 -27 -22 -27 -101 0 -56 4 -73 20 -89 11
-11 20 -27 20 -36 0 -13 3 -14 13 -5 18 14 27 4 27 -29 0 -14 9 -43 20 -65 11
-22 20 -45 20 -52 0 -15 35 -53 49 -53 5 0 17 8 27 17 17 18 24 18 183 13 81
-3 94 -6 99 -22 2 -10 13 -18 23 -18 11 0 23 -8 26 -17 14 -38 52 -44 82 -12
12 13 37 23 66 26 54 7 66 18 28 28 -40 10 -8 26 36 18 24 -4 32 -2 27 6 -8
12 35 16 47 4 11 -10 -14 -33 -37 -33 -17 0 -18 -2 -6 -10 8 -5 27 -10 43 -10
22 0 27 4 27 25 0 31 17 39 53 26 21 -8 27 -17 27 -41 0 -27 -3 -30 -29 -30
-17 0 -33 -4 -36 -10 -4 -6 27 -10 87 -10 106 0 138 6 138 26 0 8 7 14 15 14
7 0 18 7 23 16 8 13 31 18 111 22 l102 5 -7 -42 -7 -41 77 0 c69 0 76 -2 76
-20 0 -15 -7 -20 -29 -20 -17 0 -33 -5 -37 -11 -21 -35 98 -34 123 0 13 19 14
19 38 -5 13 -13 31 -24 40 -24 9 0 13 -5 10 -10 -3 -6 5 -14 20 -20 22 -8 24
-12 13 -29 -7 -11 -21 -22 -31 -25 -28 -7 -11 -26 25 -26 21 0 31 6 35 19 6
25 32 35 50 19 12 -10 18 -9 27 4 11 15 14 13 28 -15 27 -54 29 -75 5 -79 -27
-4 -33 -25 -9 -32 11 -4 22 -16 25 -26 3 -12 14 -20 26 -20 25 0 27 12 6 30
-16 13 -21 50 -7 50 14 0 39 -32 51 -63 6 -15 16 -27 23 -27 18 -1 52 -31 61
-53 5 -14 15 -17 39 -15 48 4 44 32 -5 36 -30 3 -37 7 -35 20 4 19 60 28 114
17 38 -7 48 -28 39 -79 -6 -30 -11 -35 -39 -38 -45 -4 -42 -32 5 -36 27 -2 38
-9 42 -23 4 -14 14 -19 40 -19 26 0 36 -5 40 -20 4 -15 14 -20 36 -20 26 0 31
-4 31 -24 0 -14 10 -32 22 -40 25 -18 108 -22 108 -6 0 6 -11 10 -24 10 -22 0
-23 2 -13 25 7 14 15 25 19 25 6 0 47 -63 60 -92 4 -10 14 -18 22 -18 7 0 16
-9 19 -20 4 -15 14 -20 37 -20 21 0 38 -8 51 -23 12 -14 21 -18 26 -12 5 6 19
15 33 21 21 9 26 8 37 -14 11 -21 11 -26 -3 -37 -15 -10 -11 -13 24 -18 42 -7
72 -1 72 14 0 5 7 9 16 9 8 0 12 -4 9 -10 -4 -6 30 -10 96 -10 96 0 101 1 96
20 -7 25 4 25 35 0 37 -28 130 -38 163 -16 15 10 34 14 46 11 11 -4 35 0 53 9
27 13 38 13 59 3 15 -6 27 -15 27 -19 0 -12 86 -9 115 4 19 9 30 8 48 -1 25
-13 100 -15 454 -12 139 1 258 -1 263 -4 19 -11 80 5 80 20 0 18 -4 18 45 0
22 -8 65 -14 96 -15 l57 0 4 69 c2 39 6 73 10 76 4 4 45 7 92 7 61 -1 92 -5
108 -16 34 -24 92 -21 110 6 14 20 19 21 73 12 34 -5 61 -15 65 -24 4 -8 11
-24 17 -35 5 -11 8 -37 5 -57 l-4 -38 279 0 c209 0 282 3 292 13 11 9 14 9 18
0 5 -14 153 -19 153 -5 0 4 -7 18 -16 30 -14 20 -14 22 1 22 9 0 24 -13 33
-30 17 -30 17 -30 110 -30 l92 0 0 74 0 74 45 10 c26 6 61 6 82 2 46 -11 341
4 355 18 6 6 8 28 4 54 -9 59 -9 71 -1 251 l7 157 74 0 74 0 0 40 c0 47 -6 49
-37 13 -19 -24 -24 -26 -33 -13 -12 19 -14 128 -1 115 5 -6 11 -19 13 -30 2
-14 11 -20 28 -20 25 0 25 1 26 95 0 52 1 246 2 430 2 184 3 349 2 365 0 17 3
379 6 805 6 791 -4 1215 -30 1232 -6 4 -26 8 -43 8 l-33 0 0 110 0 110 -30 0
-30 0 0 160 0 160 -80 0 -80 0 0 110 0 110 -60 0 c-53 0 -60 2 -60 20 0 18 7
20 61 20 60 0 60 0 57 27 -2 19 -10 29 -23 31 -27 5 -73 50 -77 76 -2 14 -11
22 -29 24 -16 2 -29 11 -32 22 -3 13 -11 17 -26 13 -12 -3 -28 0 -36 7 -18 15
-20 81 -3 98 14 14 1 20 -52 24 l-35 3 -1 60 c0 33 -6 71 -13 83 -9 18 -10 31
-1 58 16 49 8 65 -30 58 -27 -6 -30 -4 -30 19 0 13 -6 30 -14 37 -8 6 -16 21
-18 33 -2 18 -11 23 -41 25 -35 3 -38 5 -31 25 4 12 8 47 8 77 1 47 -2 55 -19
58 -11 2 -32 16 -47 30 -23 21 -28 34 -28 74 0 52 -22 76 -44 46 -6 -8 -17
-13 -23 -11 -7 3 -13 -1 -13 -9 -1 -22 -40 32 -40 56 0 15 -3 17 -9 8 -6 -10
-10 -7 -15 13 -4 15 -21 35 -41 46 -29 17 -33 24 -25 39 6 11 15 22 21 25 12
8 -36 55 -56 55 -8 0 -17 5 -20 10 -4 6 -16 10 -28 8 -19 -3 -23 3 -27 42 -4
39 -8 45 -30 48 -49 6 -54 11 -36 31 15 17 15 20 -4 44 -24 30 -25 35 -4 58
22 24 12 47 -28 65 -18 8 -41 20 -50 26 -9 7 -21 9 -25 4 -4 -4 2 -15 15 -23
12 -9 22 -26 22 -39 0 -29 -4 -30 -41 -3 -20 14 -31 32 -35 58 -9 55 -18 68
-39 51 -24 -20 -43 2 -26 33 21 40 -23 114 -82 136 -24 9 -27 16 -27 59 0 28
-6 56 -15 68 -15 18 -16 18 -45 -15 -16 -19 -33 -32 -36 -28 -4 4 0 15 9 25
23 25 21 39 -2 18 -16 -15 -19 -15 -24 -1 -4 8 -15 15 -26 15 -17 0 -18 5 -14
41 l6 40 -39 -3 c-37 -3 -39 -1 -42 27 -5 39 -19 55 -48 55 -24 0 -72 42 -54
48 16 6 12 32 -6 32 -11 0 -14 6 -9 21 6 19 4 21 -18 15 -21 -5 -26 -2 -29 16
-2 18 -11 24 -36 26 -25 3 -36 10 -44 30 -6 15 -11 30 -10 34 1 4 -14 10 -33
14 -46 8 -53 22 -24 46 13 11 18 17 11 13 -8 -4 -19 1 -26 11 -8 11 -19 15
-30 11 -21 -8 -65 22 -59 40 3 7 -7 15 -22 19 -19 5 -23 10 -16 17 6 6 11 18
11 26 0 12 -3 12 -12 3 -18 -18 -41 -15 -34 4 4 12 1 14 -14 9 -22 -7 -26 5
-8 23 15 15 3 28 -14 15 -20 -16 -101 46 -109 83 -4 16 -10 37 -14 47 -5 13
-2 17 14 17 12 0 21 5 21 10 0 12 -37 13 -44 1 -12 -19 -99 16 -142 57 -49 46
-52 52 -27 52 12 0 14 3 7 10 -8 8 -19 8 -38 0 -38 -14 -43 -13 -42 13 1 17
-7 24 -31 32 -22 6 -38 20 -48 42 -14 30 -20 33 -59 33 -46 0 -67 15 -85 63
-9 22 -17 27 -45 27 l-35 0 -4 53 c-3 40 -5 47 -11 30 -5 -13 -15 -23 -23 -23
-8 0 -11 5 -8 10 13 20 -7 32 -25 15 -11 -10 -26 -14 -38 -11 -25 8 -56 53
-42 61 23 14 9 27 -24 21 -42 -8 -90 24 -68 45 6 7 12 17 12 21 0 13 -35 9
-48 -4 -10 -10 -15 -10 -22 2 -7 11 -4 20 11 33 12 10 19 20 15 24 -10 10 -57
-16 -54 -29 7 -29 -50 -17 -83 18 -12 13 -28 24 -35 24 -6 0 -14 7 -18 15 -3
8 -12 12 -20 9 -8 -3 -34 9 -58 26 -42 31 -43 32 -13 28 24 -2 30 1 30 16 0
18 -7 19 -69 17 -72 -3 -136 19 -136 46 0 7 -5 13 -11 13 -5 0 -7 5 -4 10 4 6
-11 10 -37 10 -30 0 -55 8 -81 25 -41 29 -46 38 -17 33 10 -2 20 2 22 7 1 6
-24 13 -56 17 -63 8 -129 44 -121 66 3 9 0 10 -13 3 -11 -6 -24 -6 -32 -1 -8
5 -33 9 -55 8 -22 0 -58 8 -80 19 -22 11 -51 25 -65 32 -21 9 -16 10 34 5 38
-4 56 -2 52 4 -10 16 -57 22 -96 14 -23 -6 -52 -3 -85 7 -62 19 -60 17 -45 36
14 17 4 20 -63 15 -22 -1 -45 4 -55 13 -9 8 -37 17 -61 21 -24 4 -57 14 -75
23 -30 16 -30 17 -8 22 71 18 -8 38 -154 40 -42 1 -84 7 -100 16 -16 8 -38 15
-50 15 -11 0 -24 4 -30 8 -10 9 -91 28 -164 37 -25 3 -68 17 -97 30 -28 14
-62 25 -75 25 -28 0 -42 9 -51 33 -3 9 -16 17 -28 17 -18 0 -19 -2 -9 -15 21
-25 6 -28 -72 -15 -71 12 -117 27 -129 43 -3 4 -17 3 -31 -3 -20 -10 -31 -9
-57 4 -37 20 -185 35 -337 36 -97 0 -114 3 -134 20 -22 19 -32 20 -161 14
-132 -7 -137 -6 -155 15 -17 20 -28 21 -165 21 -89 0 -149 -4 -151 -10z m581
-810 c121 -20 248 -85 376 -193 147 -123 171 -125 387 -22 192 91 286 119 378
113 99 -7 148 -34 248 -137 99 -102 114 -108 240 -97 192 16 320 18 390 6 70
-12 99 -31 45 -30 -16 1 -44 -3 -63 -8 l-35 -10 30 -2 c25 -1 27 -2 10 -9 -30
-11 -288 12 -293 27 -4 13 -68 9 -165 -9 -64 -13 -1607 -5 -1686 9 -49 8 -64
26 -30 35 14 4 20 11 16 21 -5 12 0 16 17 16 14 0 26 -5 28 -11 2 -6 2 20 0
58 -4 65 -2 71 17 76 18 4 21 13 21 62 0 35 4 54 10 50 6 -3 10 -40 10 -81 0
-43 4 -74 10 -74 6 0 10 33 10 79 0 47 4 81 11 83 5 2 7 10 4 19 -5 13 -27 16
-116 18 -64 1 -116 -2 -123 -8 -13 -11 -152 -42 -139 -31 10 9 149 48 188 53
60 8 142 7 204 -3z m-679 -329 c0 -23 -39 -31 -198 -38 -125 -6 -176 -13 -181
-22 -5 -8 -11 -9 -15 -3 -13 21 27 33 170 47 82 9 154 17 159 20 20 7 65 5 65
-4z m-70 -62 c-50 -12 -297 -24 -287 -13 9 9 140 20 252 21 59 1 65 0 35 -8z
m2468 -178 c79 -5 116 -12 122 -21 15 -23 -7 -38 -98 -66 -80 -25 -100 -27
-242 -25 -308 3 -805 23 -814 32 -6 5 -2 9 11 9 15 0 20 6 19 18 -2 10 5 20
18 24 13 5 4 6 -21 4 -24 -2 -43 0 -43 5 0 5 1 10 3 10 21 13 883 22 1045 10z
m-1973 -731 c-3 -5 -19 -10 -35 -10 -15 0 -57 -9 -92 -20 -39 -12 -92 -20
-138 -20 -83 0 -362 -23 -480 -40 -211 -29 -389 -68 -607 -132 -94 -28 -178
-48 -187 -45 -9 4 -16 18 -16 32 0 31 2 31 210 91 257 74 526 121 815 143 165
12 537 13 530 1z m300 -15 c368 -43 659 -120 1030 -275 55 -23 107 -48 116
-56 8 -8 24 -14 33 -14 25 0 239 -104 381 -185 109 -62 295 -181 418 -267 28
-20 63 -35 83 -36 77 -6 315 -112 466 -208 93 -60 222 -191 270 -272 20 -35
66 -140 103 -233 51 -127 77 -180 106 -212 l38 -42 88 90 c217 223 282 249
638 249 191 1 227 -2 275 -18 67 -23 169 -74 230 -115 26 -18 58 -31 76 -31
46 0 123 44 187 107 l58 57 382 -3 c224 -1 387 -7 393 -12 19 -15 217 -420
283 -577 137 -325 243 -646 332 -1012 27 -113 52 -214 54 -226 5 -20 0 -21
-163 -28 -92 -4 -414 -11 -717 -15 -468 -7 -556 -11 -587 -24 -21 -9 -38 -20
-38 -25 0 -6 131 -12 318 -16 174 -3 394 -11 487 -17 94 -7 295 -14 448 -16
152 -3 277 -7 277 -9 0 -2 7 -46 15 -97 8 -50 17 -114 20 -142 3 -27 7 -61 10
-75 10 -51 45 -447 45 -512 0 -104 -15 -87 -18 21 -1 53 -4 110 -7 126 -2 17
-4 38 -4 48 -1 15 -14 17 -135 17 -150 0 -248 -10 -206 -20 31 -8 29 -35 -6
-62 -24 -19 -24 -22 -24 -189 0 -145 -2 -169 -15 -169 -13 0 -15 -15 -13 -97
l3 -98 45 -5 c32 -4 46 -10 48 -22 4 -18 -21 -22 -167 -22 -33 0 -40 -2 -29
-10 10 -7 55 -9 134 -4 65 3 173 7 239 7 66 1 125 5 132 9 8 5 13 54 14 160 1
84 5 169 9 190 12 57 11 -594 0 -758 -26 -375 -84 -775 -161 -1101 l-20 -87
-92 -7 c-132 -10 -215 -27 -394 -83 -268 -85 -320 -88 -548 -37 -189 42 -326
91 -422 152 -47 29 -88 53 -90 53 -3 0 -42 -25 -87 -55 -93 -62 -239 -112
-416 -140 -113 -19 -175 -14 -482 32 -116 17 -118 17 -231 -5 -139 -27 -155
-27 -303 -2 -457 79 -726 199 -1162 516 -335 245 -628 392 -865 435 -59 11
-71 17 -80 38 -13 33 -15 491 -3 734 10 201 9 198 89 147 40 -25 89 -81 148
-170 25 -38 30 -21 10 37 -24 72 -85 160 -127 185 -39 23 -40 41 -3 46 13 2
53 12 89 22 73 22 149 28 198 16 17 -4 32 -5 32 -1 0 21 -105 145 -123 145 -5
0 -27 -13 -50 -30 -23 -16 -57 -33 -74 -36 l-33 -6 0 89 c0 49 -3 93 -6 96 -4
4 -19 -2 -34 -13 -48 -34 -102 -22 -114 25 -14 54 -26 22 -27 -67 l0 -93 -22
30 c-47 64 -118 126 -140 123 -17 -2 -21 -9 -19 -28 7 -49 74 -176 114 -217
49 -50 47 -52 -71 -55 -98 -3 -111 -16 -52 -49 45 -25 47 -30 29 -59 -18 -28
-3 -35 29 -12 29 20 101 44 112 37 4 -2 3 -46 -1 -97 -4 -51 -9 -256 -10 -455
l-3 -363 -184 0 -184 0 6 58 c4 31 11 134 17 227 12 183 15 202 25 168 4 -13
12 -20 21 -16 8 3 25 -2 39 -11 13 -9 27 -16 30 -16 12 0 3 24 -20 52 -31 36
-31 45 -2 53 31 10 77 55 77 77 0 23 -4 22 -75 -2 -32 -11 -60 -18 -63 -16 -2
3 5 18 17 34 12 17 21 35 21 41 0 20 -29 12 -41 -11 -12 -23 -13 -23 -26 10
-11 26 -18 32 -44 32 -31 0 -31 -1 -25 -37 3 -21 9 -48 12 -60 l6 -22 -76 23
c-58 18 -76 21 -76 11 0 -20 30 -46 42 -39 7 4 8 2 4 -5 -5 -7 7 -18 32 -29
l40 -18 -46 -29 c-56 -35 -39 -44 39 -21 29 9 54 16 55 16 18 0 7 -377 -12
-447 l-6 -23 -283 0 -283 0 -6 98 c-3 53 -11 176 -16 272 -21 361 -18 338 -51
345 -37 8 -37 20 2 40 l31 16 -6 67 c-3 37 -15 229 -26 427 -11 198 -24 421
-30 495 -5 74 -13 199 -16 278 l-7 142 45 0 c59 0 76 15 79 70 3 69 1 74 -15
61 -8 -7 -36 -11 -63 -9 l-48 3 -3 214 c-3 226 0 241 43 241 49 0 42 63 -9 80
-29 9 -34 17 -40 51 -12 75 -64 142 -139 181 -32 16 -38 23 -32 41 16 53 16
64 -5 90 -52 66 -144 -1 -105 -77 18 -34 14 -42 -26 -51 -18 -4 -54 -29 -85
-59 -43 -42 -56 -63 -71 -114 -16 -55 -22 -64 -46 -69 -55 -11 -61 -73 -7 -73
30 0 30 0 31 -57 0 -32 3 -80 6 -108 3 -27 2 -109 -2 -182 l-7 -132 -54 1
c-45 1 -54 5 -58 22 -3 12 -3 -8 -1 -42 3 -35 7 -68 11 -73 3 -5 27 -9 54 -9
27 0 51 -3 53 -7 3 -5 1 -71 -3 -148 -5 -77 -13 -228 -20 -335 -13 -242 -37
-643 -46 -772 -7 -96 -7 -96 17 -100 33 -4 31 -32 -3 -36 -27 -3 -28 -6 -28
-55 0 -44 -20 -315 -46 -644 l-7 -83 -232 0 -232 0 -11 123 c-16 168 -26 397
-18 397 3 0 32 -20 64 -45 31 -25 61 -45 65 -45 5 0 7 12 5 27 -2 21 -15 35
-56 59 l-52 32 47 15 c27 9 66 18 88 22 65 11 75 15 75 35 0 25 -37 50 -75 50
-16 -1 -53 -9 -82 -19 l-52 -18 7 31 c4 17 7 47 7 66 0 30 -3 35 -24 35 -20 0
-27 -7 -34 -35 -5 -19 -10 -37 -12 -39 -2 -2 -18 13 -35 33 -30 34 -60 47 -60
27 0 -5 9 -39 21 -76 11 -37 18 -69 15 -72 -2 -3 -22 9 -43 26 -21 16 -59 40
-85 51 l-48 21 0 60 c0 42 8 81 26 126 16 41 25 77 22 99 -4 31 6 48 14 24 5
-15 84 -41 146 -47 74 -8 69 15 -13 57 -50 25 -72 31 -100 27 -39 -6 -48 7
-11 17 14 3 60 23 103 43 54 25 97 38 138 41 33 2 64 8 68 12 14 13 -52 80
-79 80 -27 0 -130 -36 -159 -56 -22 -16 -39 -18 -31 -5 4 5 7 35 7 66 1 46 -3
60 -21 80 -32 34 -58 31 -102 -12 l-38 -37 -17 24 c-27 38 -52 60 -68 60 -22
0 -19 -23 15 -102 34 -80 37 -98 13 -75 -24 20 -173 97 -190 97 -30 0 -9 -37
64 -111 42 -44 87 -82 100 -85 29 -8 20 -24 -13 -24 -52 0 -120 -53 -108 -84
15 -38 40 -36 186 13 l28 9 -8 -41 c-9 -56 -9 -781 1 -879 l8 -78 -215 0
c-134 0 -217 4 -221 10 -4 6 -9 126 -11 268 l-5 257 21 -27 c14 -19 31 -28 50
-28 15 0 47 -7 70 -15 24 -8 45 -13 48 -11 2 3 -23 23 -56 44 l-61 39 42 12
c23 7 57 21 75 32 36 21 62 25 62 9 0 -5 5 -10 10 -10 6 0 10 18 10 40 0 39
-1 40 -34 40 -18 0 -66 -14 -106 -30 -40 -17 -75 -29 -76 -27 -2 2 1 31 7 66
6 34 9 65 5 68 -3 4 -16 -3 -29 -15 -13 -12 -35 -22 -49 -22 -21 0 -29 7 -39
35 -14 39 -21 42 -40 19 -12 -15 -9 -41 18 -136 7 -27 -22 -22 -84 12 l-53 30
0 -29 c0 -38 42 -88 80 -96 39 -9 38 -17 -5 -46 -22 -15 -35 -32 -35 -46 0
-13 2 -23 5 -23 9 0 69 34 103 58 l32 23 0 -114 c0 -62 3 -175 7 -250 l6 -137
-111 0 -111 0 6 -70 c5 -56 3 -70 -8 -70 -8 0 -68 7 -134 15 -66 9 -141 19
-167 22 l-48 6 0 60 c0 32 12 132 26 221 24 149 26 180 22 416 l-3 255 25 -3
c14 -1 51 -19 83 -38 32 -20 60 -34 63 -31 3 2 -7 18 -21 35 -23 28 -24 32 -9
40 14 8 10 13 -28 30 -26 11 -56 23 -67 27 -12 3 -21 14 -21 22 0 18 102 159
133 184 l20 17 -21 11 c-29 15 -85 0 -132 -34 l-35 -26 -8 23 c-23 60 -37 88
-46 88 -20 0 -41 -33 -41 -64 0 -44 -6 -48 -47 -25 -37 21 -51 20 -37 -3 10
-16 44 -112 40 -115 -1 -1 -33 20 -72 48 l-69 50 -50 -53 -50 -52 65 -12 c36
-7 100 -23 143 -36 l78 -24 -30 -27 c-35 -31 -94 -140 -89 -165 2 -12 15 -2
43 33 76 95 116 130 126 114 16 -25 11 -552 -7 -659 -8 -52 -18 -139 -21 -192
-3 -56 -10 -98 -16 -98 -5 0 -52 13 -104 30 -121 39 -165 39 -239 -1 -108 -58
-131 -68 -198 -85 l-67 -17 -77 81 c-106 110 -121 117 -223 97 -88 -16 -225
-20 -233 -6 -3 4 2 48 10 97 16 87 14 301 -2 422 l-6 42 46 0 c25 0 46 5 46
10 0 6 -7 10 -16 10 -8 0 -12 5 -9 10 3 6 17 10 30 10 13 0 27 5 30 10 4 6 -9
10 -32 10 -21 0 -48 3 -61 6 l-23 7 21 22 c30 32 22 57 -20 68 -19 4 -46 11
-59 14 -26 6 -26 14 -5 -85 5 -24 1 -30 -32 -47 -59 -31 -57 -49 4 -42 48 6
50 5 56 -21 14 -55 19 -406 7 -462 -17 -82 -18 -83 -82 -64 -57 17 -282 122
-311 145 -16 13 -16 27 -4 191 10 139 16 182 29 196 24 27 22 36 -20 76 -41
38 -62 39 -37 1 17 -26 12 -45 -12 -45 -20 0 -18 -29 4 -37 26 -10 31 -23 27
-73 -2 -25 -7 -83 -10 -130 -10 -138 -13 -151 -40 -144 -13 3 -61 -8 -115 -26
l-93 -32 -86 16 c-272 52 -368 57 -433 22 l-45 -24 -7 51 c-3 29 -6 87 -6 129
0 65 3 79 19 87 22 12 33 55 18 70 -6 6 -24 11 -39 11 -24 0 -28 -4 -28 -29 0
-17 5 -33 10 -36 13 -8 13 -274 1 -294 -8 -12 -29 -7 -128 29 -65 23 -132 45
-148 47 -38 6 -129 -24 -260 -84 -130 -61 -177 -65 -285 -27 l-81 29 -77 -29
c-212 -79 -166 -72 -380 -53 -104 9 -201 21 -216 27 l-26 10 0 145 0 145 35 0
c32 0 35 2 35 30 l0 30 -274 0 -273 0 -6 83 c-19 237 3 727 49 1105 4 28 11
52 15 52 23 0 490 -74 669 -106 257 -46 311 -44 485 17 161 56 219 57 330 7
220 -100 331 -128 504 -128 163 0 270 24 478 105 99 40 291 88 543 139 185 37
534 63 920 67 l155 2 -185 8 c-173 7 -260 21 -260 41 0 4 -9 8 -21 8 -35 0
-61 19 -54 41 6 17 3 19 -18 15 -23 -4 -25 -1 -25 29 0 18 -3 42 -7 54 -3 12
-3 21 0 21 12 0 35 -29 35 -44 0 -9 5 -16 10 -16 13 0 13 7 -1 70 -6 29 -16
50 -24 50 -8 0 -11 -7 -8 -20 5 -19 -9 -26 -39 -21 -15 2 -8 -30 7 -35 8 -4
15 -10 15 -15 0 -5 -9 -4 -21 3 -19 12 -20 19 -14 114 5 70 4 108 -4 123 -17
31 -28 196 -13 187 8 -5 12 0 12 14 0 11 4 28 9 38 4 9 16 34 27 55 10 22 28
49 41 60 12 12 23 30 23 40 0 9 7 17 15 17 8 0 15 7 15 16 0 8 5 12 10 9 6 -3
10 2 10 13 0 22 33 55 45 45 4 -5 5 -3 1 4 -3 6 2 16 11 22 16 8 16 14 6 41
-10 27 -9 36 4 57 9 14 18 33 18 42 5 47 19 83 38 95 17 11 95 15 322 20 541
12 806 29 1065 72 l35 6 -32 -29 c-18 -16 -33 -33 -33 -38 0 -6 -20 -32 -45
-60 -57 -63 -151 -192 -215 -296 -74 -119 -61 -108 25 20 42 62 101 145 132
184 465 582 1202 932 1977 938 145 2 160 3 96 10 -41 4 -137 7 -213 7 -75 -1
-140 2 -144 5 -3 4 3 7 15 7 12 0 39 15 59 33 43 38 70 51 78 36 8 -12 25 -2
21 14 -1 7 -1 9 1 5 8 -14 31 -9 37 8 5 12 8 13 20 2 8 -7 11 -17 8 -22 -3 -5
0 -6 5 -3 6 4 22 -2 36 -13 36 -28 93 -47 184 -60 73 -11 88 -9 223 19 147 32
300 77 378 112 42 19 58 35 25 25 -32 -10 -133 -14 -133 -6 0 5 -8 8 -17 8
-10 0 -67 7 -128 16 -60 9 -161 17 -225 16 -233 -2 -250 -1 -250 15 0 8 3 14
8 14 20 -3 25 2 12 12 -12 8 -9 10 13 6 15 -2 30 0 33 4 3 5 -2 9 -10 9 -14 0
-16 22 -16 160 0 152 1 160 19 160 15 0 21 -9 24 -37 3 -21 4 6 2 60 -2 77 1
97 12 97 7 0 18 10 23 23 6 15 9 -15 9 -95 1 -68 -3 -119 -9 -123 -5 -3 -10
-17 -10 -31 0 -24 -14 -33 -23 -14 -3 6 -4 5 -3 -2 1 -7 10 -14 19 -16 13 -3
17 4 17 27 0 16 5 33 10 36 6 4 10 55 10 120 0 71 4 115 11 117 5 2 13 22 16
44 l5 41 -44 7 c-25 4 -52 4 -61 0 -22 -8 -67 3 -67 17 0 12 190 6 270 -7 129
-22 370 -123 370 -156 0 -10 -4 -18 -9 -18 -12 0 4 -60 20 -74 9 -8 9 -5 0 11
-26 51 4 103 58 103 58 0 84 -84 36 -116 -14 -9 -36 -14 -50 -12 -13 3 -22 1
-19 -3 17 -27 93 4 107 44 4 9 14 17 23 17 23 0 283 -160 328 -202 11 -10 22
-18 25 -18 6 0 41 28 196 155 184 151 343 217 618 255 48 7 87 15 87 19 0 3
-62 45 -137 93 -225 141 -508 288 -711 369 -170 68 -202 85 -202 109 0 22 -34
28 -46 9 -9 -15 -60 -8 -195 29 -235 64 -418 97 -698 126 -79 9 -146 18 -149
21 -3 3 3 14 14 24 24 25 117 27 299 6z m-1915 -260 c0 -29 -8 -34 -120 -70
-47 -16 -90 -32 -96 -37 -6 -4 -62 -33 -124 -64 -661 -324 -1225 -795 -1636
-1366 -53 -73 -102 -145 -110 -160 -13 -26 -13 -27 19 -33 36 -8 85 -38 137
-86 64 -58 88 -63 200 -39 134 27 248 26 380 -5 112 -26 211 -32 257 -14 15 5
53 34 84 64 97 92 173 115 409 122 168 5 193 3 465 -32 22 -3 87 -12 145 -20
58 -8 125 -16 149 -18 53 -2 63 -19 24 -40 -70 -36 -82 -44 -76 -50 3 -4 -2
-7 -13 -7 -10 0 -32 -10 -49 -21 -16 -12 -22 -19 -12 -15 9 3 17 1 17 -4 0 -6
-9 -10 -19 -10 -11 0 -23 -5 -27 -12 -5 -7 -2 -8 7 -3 8 5 11 4 6 -1 -5 -5
-13 -10 -18 -10 -5 -1 -13 -2 -18 -3 -5 0 -12 -9 -15 -18 -3 -10 -21 -27 -38
-37 -31 -18 -65 -19 -602 -24 -322 -2 -562 -8 -555 -13 8 -5 34 -9 59 -10 l45
-2 -45 -8 c-56 -10 -744 -9 -825 1 -56 7 -53 7 45 9 192 4 150 18 -70 24 -118
3 -224 7 -235 9 -17 2 -33 -23 -103 -162 -63 -127 -87 -166 -104 -168 -18 -3
-20 0 -15 26 3 16 35 93 71 172 36 78 66 145 66 147 0 3 -7 -1 -16 -8 -13 -11
-94 -14 -395 -16 -208 -2 -380 1 -383 6 -3 4 18 9 47 10 28 1 56 6 61 11 6 6
28 10 51 10 68 0 152 62 90 66 -11 1 -33 3 -50 4 -28 1 -29 2 -7 10 47 19 17
26 -116 24 l-137 -2 120 8 c66 5 148 11 183 14 59 5 84 -6 42 -19 -21 -7 -27
-30 -10 -40 5 -3 19 9 31 27 26 40 125 102 216 135 84 30 254 48 345 37 l67
-9 -27 -45 c-51 -82 -93 -162 -83 -156 5 3 26 36 47 73 80 144 295 447 435
616 212 254 509 528 783 724 223 159 600 375 740 423 31 10 85 33 119 50 76
37 169 70 179 64 5 -3 8 -16 8 -29z m380 -425 c24 -24 24 -29 4 -58 -17 -24
-53 -29 -72 -10 -19 19 -14 55 10 72 29 20 34 20 58 -4z m1660 -4 c0 -8 -5
-18 -11 -22 -14 -8 -33 11 -25 25 10 16 36 13 36 -3z m835 -46 c8 -26 -1 -40
-26 -40 -22 0 -34 22 -25 45 8 22 44 18 51 -5z m3165 -95 c58 -43 129 -59 224
-51 284 24 316 21 316 -30 0 -20 -7 -24 -47 -30 -78 -12 -902 1 -915 14 -16
16 -9 21 45 25 25 1 50 7 54 12 4 4 -2 6 -14 3 -29 -8 -50 16 -33 36 10 13 7
14 -16 10 -16 -3 -40 -2 -54 2 l-25 7 30 9 c39 12 175 25 294 27 92 1 94 0
141 -34z m-1800 -34 c0 -9 -41 -23 -49 -16 -3 4 28 20 47 24 1 1 2 -3 2 -8z
m2814 -213 c69 -105 186 -303 186 -313 0 -7 -767 -4 -889 4 -177 10 -130 55
76 72 204 16 212 21 363 192 60 68 166 157 187 157 2 0 37 -51 77 -112z
m-4767 -434 c-3 -3 -12 -4 -19 -1 -8 3 -5 6 6 6 11 1 17 -2 13 -5z m-130 -40
c-3 -3 -12 -4 -19 -1 -8 3 -5 6 6 6 11 1 17 -2 13 -5z m-217 -34 c0 -5 -4 -10
-10 -10 -5 0 -10 5 -10 10 0 6 5 10 10 10 6 0 10 -4 10 -10z m-4905 -590 c3
-5 2 -10 -4 -10 -5 0 -13 5 -16 10 -3 6 -2 10 4 10 5 0 13 -4 16 -10z m75 -20
c-8 -5 -22 -9 -30 -9 -10 0 -8 3 5 9 27 12 43 12 25 0z m670 -100 c0 -5 -4
-10 -10 -10 -5 0 -10 5 -10 10 0 6 5 10 10 10 6 0 10 -4 10 -10z m140 -10 c0
-5 -2 -10 -4 -10 -3 0 -8 5 -11 10 -3 6 -1 10 4 10 6 0 11 -4 11 -10z m-2960
-126 c-6 -14 -8 -29 -5 -34 3 -4 -2 -10 -10 -14 -8 -3 -15 -2 -15 1 0 16 25
73 32 73 4 0 3 -12 -2 -26z m80 -44 c0 -5 -6 -10 -14 -10 -8 0 -18 5 -21 10
-3 6 3 10 14 10 12 0 21 -4 21 -10z m148 3 c-10 -2 -28 -2 -40 0 -13 2 -5 4
17 4 22 1 32 -1 23 -4z m-276 -151 c-7 -2 -12 -10 -12 -18 0 -8 -5 -14 -10
-14 -6 0 -10 -6 -8 -12 3 -19 -12 -58 -22 -58 -8 0 14 92 26 112 3 4 12 4 21
1 11 -4 13 -8 5 -11z m496 11 c-10 -2 -26 -2 -35 0 -10 3 -2 5 17 5 19 0 27
-2 18 -5z m115 0 c-13 -2 -33 -2 -45 0 -13 2 -3 4 22 4 25 0 35 -2 23 -4z
m-170 -20 c-13 -2 -35 -2 -50 0 -16 2 -5 4 22 4 28 0 40 -2 28 -4z m80 0 c-7
-2 -19 -2 -25 0 -7 3 -2 5 12 5 14 0 19 -2 13 -5z m167 -61 c0 -10 5 -23 12
-30 9 -9 -8 -12 -80 -12 -87 0 -92 1 -92 21 0 19 5 21 40 17 28 -2 40 0 40 9
0 8 14 13 40 13 32 0 40 -4 40 -18z m690 3 c0 -9 -19 -16 -57 -20 -32 -4 -74
-11 -93 -16 -19 -5 -143 -8 -275 -8 -132 1 -227 5 -210 9 27 7 28 8 6 9 -35 1
-15 18 34 30 22 5 165 9 318 10 228 0 277 -3 277 -14z m4868 -92 c-3 -55 -4
-58 -30 -61 -28 -3 -28 -3 -28 57 l0 61 30 0 31 0 -3 -57z m132 2 c0 -54 0
-55 -29 -55 -16 0 -36 -3 -45 -6 -14 -5 -16 3 -16 55 l0 61 45 0 45 0 0 -55z
m140 -100 l0 -155 -55 0 -55 0 0 85 0 85 41 0 c28 0 39 4 36 13 -2 6 -19 12
-37 12 -34 0 -34 0 -36 50 0 28 1 53 3 58 2 4 26 7 54 7 l49 0 0 -155z m82
108 c-2 -26 1 -43 7 -43 6 0 11 -4 11 -10 0 -5 -16 -10 -36 -10 -29 0 -35 3
-30 16 3 9 6 34 6 56 0 35 2 39 22 36 20 -3 22 -8 20 -45z m-214 -175 l3 -88
-51 0 -50 0 0 90 0 89 48 -2 47 -2 3 -87z m-154 76 c22 -9 24 -164 2 -164 -8
0 -21 -3 -30 -6 -14 -5 -16 6 -16 85 0 94 3 101 44 85z m364 0 c12 -4 22 -13
22 -20 0 -8 -10 -19 -22 -24 -13 -5 -17 -9 -10 -9 8 -1 12 -17 12 -46 0 -25 5
-45 11 -45 5 0 7 -4 4 -10 -3 -5 -18 -10 -33 -10 -27 0 -27 0 -30 85 -3 90 -2
91 46 79z m-4088 -63 c0 -16 -62 -237 -101 -359 -19 -58 -28 -20 -14 53 12 66
79 297 91 316 9 16 24 10 24 -10z m-94 -519 c71 -57 40 -156 -53 -169 -74 -10
-124 66 -89 135 9 17 24 36 33 41 28 16 86 12 109 -7z m10467 -619 c-7 -2 -19
-2 -25 0 -7 3 -2 5 12 5 14 0 19 -2 13 -5z m-76 -83 c1 -14 -4 -20 -19 -20
-20 0 -21 1 -3 20 10 11 19 20 19 20 1 0 2 -9 3 -20z m-7590 -236 c-3 -3 -12
-4 -19 -1 -8 3 -5 6 6 6 11 1 17 -2 13 -5z m105 -458 c29 -13 65 -29 81 -35
28 -11 37 -31 14 -31 -21 0 -87 -50 -87 -65 0 -27 63 -18 108 15 23 17 44 30
46 30 9 0 18 -80 31 -284 8 -120 12 -223 9 -227 -6 -11 -221 -12 -227 -1 -11
17 -40 622 -30 622 1 0 26 -11 55 -24z m-5582 -335 l0 -129 -26 -6 c-15 -4
-28 -5 -30 -4 -2 2 -6 63 -10 136 l-7 132 37 0 36 0 0 -129z m344 89 c-1 -19
-2 -79 -3 -132 -1 -97 -1 -98 -26 -98 -25 0 -25 0 -25 95 l0 96 -92 -3 -93 -3
-3 -87 c-3 -86 -3 -88 -27 -88 l-25 0 0 130 0 131 148 -3 147 -3 -1 -35z
m4706 -460 l0 -61 -82 3 -83 3 -3 58 -3 57 86 0 85 0 0 -60z m60 0 c0 -33 -4
-60 -10 -60 -6 0 -10 27 -10 60 0 33 4 60 10 60 6 0 10 -27 10 -60z m37 -7
c-2 -16 -4 -5 -4 22 0 28 2 40 4 28 2 -13 2 -35 0 -50z m263 2 l0 -65 -104 0
c-57 0 -111 3 -120 6 -12 5 -16 21 -16 65 l0 59 120 0 120 0 0 -65z m110 0 c0
-63 -1 -65 -25 -65 -24 0 -25 2 -25 65 0 63 1 65 25 65 24 0 25 -2 25 -65z
m220 0 l0 -65 -85 0 -85 0 0 65 0 65 85 0 85 0 0 -65z m97 -27 c-2 -18 -4 -4
-4 32 0 36 2 50 4 33 2 -18 2 -48 0 -65z m291 30 l-3 -63 -132 -3 -133 -3 0
66 0 65 135 0 136 0 -3 -62z m162 -3 l0 -65 -50 0 -50 0 0 65 0 65 50 0 50 0
0 -65z m978 -3 l3 -63 -103 3 -103 3 -3 63 -3 63 103 -3 103 -3 3 -63z m302
-3 l0 -59 -117 0 -118 0 3 62 3 63 115 -3 114 -3 0 -60z m260 1 l0 -60 -100 0
-100 0 0 60 0 60 100 0 100 0 0 -60z m187 46 c0 0 4 -27 8 -59 l7 -58 -68 3
-69 3 -3 49 c-5 71 -2 73 65 68 32 -2 59 -5 60 -6z m163 -16 c22 -6 25 -12 28
-64 l3 -57 -38 7 c-90 17 -88 15 -91 78 l-3 57 38 -7 c21 -4 49 -10 63 -14z
m170 -51 l80 -30 0 -51 c0 -43 -2 -50 -17 -45 -10 4 -47 15 -83 25 l-65 19 -3
56 c-2 32 0 57 3 57 3 0 42 -14 85 -31z m239 -109 l61 -30 0 -55 c0 -30 -3
-55 -7 -55 -5 0 -41 20 -82 45 -41 24 -78 46 -83 47 -4 2 -5 24 -2 50 7 53 4
53 113 -2z m199 -127 c115 -63 132 -79 125 -116 -3 -17 -7 -34 -9 -35 -6 -8
-165 82 -173 97 -12 22 -23 91 -16 91 4 0 37 -16 73 -37z m301 -203 c73 -54
81 -63 81 -93 0 -19 -3 -37 -6 -40 -7 -7 -174 104 -194 128 -8 9 -10 28 -6 50
8 42 7 42 125 -45z m235 -156 c86 -45 86 -46 86 -85 0 -21 -2 -39 -5 -39 -10
0 -130 62 -157 82 -21 15 -28 28 -28 54 0 19 4 34 9 34 5 0 48 -21 95 -46z
m241 -123 l100 -39 -1 -36 c-1 -20 -4 -39 -7 -42 -3 -3 -51 16 -107 42 -88 41
-101 50 -96 68 3 12 6 27 6 34 0 15 -11 18 105 -27z m260 -98 c50 -14 93 -29
97 -33 4 -3 1 -16 -8 -28 -19 -28 -52 -28 -138 -2 -65 20 -66 21 -66 55 0 21
5 35 13 35 6 0 53 -12 102 -27z"/>
<path d="M7370 12555 c0 -8 5 -15 10 -15 6 0 10 7 10 15 0 8 -4 15 -10 15 -5
0 -10 -7 -10 -15z"/>
<path d="M10306 9877 c3 -10 9 -15 12 -12 3 3 0 11 -7 18 -10 9 -11 8 -5 -6z"/>
<path d="M5245 9060 c-3 -5 -2 -10 4 -10 5 0 13 5 16 10 3 6 2 10 -4 10 -5 0
-13 -4 -16 -10z"/>
<path d="M3998 9043 c6 -2 18 -2 25 0 6 3 1 5 -13 5 -14 0 -19 -2 -12 -5z"/>
<path d="M3921 9014 c0 -11 3 -14 6 -6 3 7 2 16 -1 19 -3 4 -6 -2 -5 -13z"/>
<path d="M7190 8640 c0 -11 5 -20 10 -20 6 0 10 9 10 20 0 11 -4 20 -10 20 -5
0 -10 -9 -10 -20z"/>
<path d="M4940 8580 c-6 -11 -8 -20 -6 -20 3 0 10 9 16 20 6 11 8 20 6 20 -3
0 -10 -9 -16 -20z"/>
<path d="M4915 8539 c-4 -6 -5 -12 -2 -15 2 -3 7 2 10 11 7 17 1 20 -8 4z"/>
<path d="M7195 8490 c-3 -5 3 -10 14 -10 12 0 21 5 21 10 0 6 -6 10 -14 10 -8
0 -18 -4 -21 -10z"/>
<path d="M6540 8432 c0 -40 4 -61 10 -57 13 8 13 85 0 105 -7 11 -10 -4 -10
-48z"/>
<path d="M6503 8445 c0 -22 2 -30 4 -17 2 12 2 30 0 40 -3 9 -5 -1 -4 -23z"/>
<path d="M7210 8454 c0 -8 5 -12 10 -9 6 3 10 10 10 16 0 5 -4 9 -10 9 -5 0
-10 -7 -10 -16z"/>
<path d="M3832 8390 c0 -19 2 -27 5 -17 2 9 2 25 0 35 -3 9 -5 1 -5 -18z"/>
<path d="M7198 8408 c9 -9 15 -9 24 0 9 9 7 12 -12 12 -19 0 -21 -3 -12 -12z"/>
<path d="M3842 8320 c0 -14 2 -19 5 -12 2 6 2 18 0 25 -3 6 -5 1 -5 -13z"/>
<path d="M3673 8220 c0 -39 3 -73 8 -76 5 -3 9 29 9 70 0 42 -4 76 -8 76 -4 0
-8 -32 -9 -70z"/>
<path d="M4681 7904 c0 -11 3 -14 6 -6 3 7 2 16 -1 19 -3 4 -6 -2 -5 -13z"/>
<path d="M12968 7443 c7 -3 16 -2 19 1 4 3 -2 6 -13 5 -11 0 -14 -3 -6 -6z"/>
<path d="M12845 7240 c-19 -8 -19 -9 3 -9 12 -1 22 4 22 9 0 6 -1 10 -2 9 -2
0 -12 -4 -23 -9z"/>
<path d="M12740 7230 c-8 -5 -10 -10 -5 -10 6 0 17 5 25 10 8 5 11 10 5 10 -5
0 -17 -5 -25 -10z"/>
<path d="M13151 7041 c-1 -100 2 -181 6 -181 4 0 7 68 5 151 -2 107 0 155 9
165 10 12 9 18 -3 30 -14 14 -16 -2 -17 -165z"/>
<path d="M4490 7135 c7 -9 15 -13 17 -11 7 7 -7 26 -19 26 -6 0 -6 -6 2 -15z"/>
<path d="M13171 6835 c0 -15 25 -45 38 -45 6 0 11 5 11 10 0 6 -5 10 -11 10
-7 0 -18 8 -25 18 -7 9 -13 13 -13 7z"/>
<path d="M12640 6756 c0 -2 7 -6 15 -10 8 -3 15 -1 15 4 0 6 -7 10 -15 10 -8
0 -15 -2 -15 -4z"/>
<path d="M12990 6750 c0 -6 11 -8 28 -4 39 10 40 14 4 14 -18 0 -32 -5 -32
-10z"/>
<path d="M12775 6730 c-3 -5 -1 -10 4 -10 6 0 11 5 11 10 0 6 -2 10 -4 10 -3
0 -8 -4 -11 -10z"/>
<path d="M12855 6730 c-13 -6 6 -7 50 -3 39 3 72 7 74 9 9 8 -105 2 -124 -6z"/>
<path d="M11245 10680 c-3 -5 3 -10 15 -10 12 0 18 5 15 10 -3 6 -10 10 -15
10 -5 0 -12 -4 -15 -10z"/>
<path d="M6784 8534 c3 -8 6 -18 6 -20 0 -3 5 -2 10 1 15 9 12 22 -6 29 -12 5
-15 2 -10 -10z"/>
<path d="M8054 13626 c-10 -26 4 -48 28 -44 17 2 23 10 23 28 0 18 -6 26 -23
28 -13 2 -25 -3 -28 -12z"/>
<path d="M8283 13573 c-17 -6 -16 -18 3 -37 11 -12 36 -16 94 -16 70 0 81 3
94 22 12 17 13 24 3 30 -13 8 -174 10 -194 1z"/>
<path d="M8762 13568 c-16 -16 -16 -99 1 -122 13 -17 70 -36 117 -39 22 -2 25
2 25 33 0 27 -5 36 -20 38 -27 5 -73 50 -77 76 -3 24 -28 32 -46 14z"/>
<path d="M8395 13480 c3 -5 13 -10 21 -10 8 0 12 5 9 10 -3 6 -13 10 -21 10
-8 0 -12 -4 -9 -10z"/>
<path d="M4750 13411 c0 -12 21 -19 43 -13 28 7 20 22 -13 22 -16 0 -30 -4
-30 -9z"/>
<path d="M8670 13410 c0 -5 7 -10 16 -10 8 0 12 5 9 10 -3 6 -10 10 -16 10 -5
0 -9 -4 -9 -10z"/>
<path d="M8720 13410 c0 -5 6 -10 14 -10 8 0 18 5 21 10 3 6 -3 10 -14 10 -12
0 -21 -4 -21 -10z"/>
<path d="M8930 13409 c0 -5 5 -7 10 -4 6 3 10 8 10 11 0 2 -4 4 -10 4 -5 0
-10 -5 -10 -11z"/>
<path d="M4760 13355 c0 -9 9 -15 25 -15 16 0 25 6 25 15 0 9 -9 15 -25 15
-16 0 -25 -6 -25 -15z"/>
<path d="M4276 13263 c-9 -9 -7 -63 2 -63 14 0 32 23 32 41 0 17 -23 32 -34
22z"/>
<path d="M4387 13262 c-21 -4 -18 -21 6 -36 13 -8 20 -7 27 4 5 8 10 18 10 21
0 10 -23 16 -43 11z"/>
<path d="M9398 13248 c9 -9 15 -9 24 0 9 9 7 12 -12 12 -19 0 -21 -3 -12 -12z"/>
<path d="M9295 13231 c-3 -5 -1 -12 5 -16 14 -9 52 4 45 16 -8 12 -42 12 -50
0z"/>
<path d="M9390 13210 c19 -13 30 -13 30 0 0 6 -10 10 -22 10 -19 0 -20 -2 -8
-10z"/>
<path d="M4338 13203 c7 -3 16 -2 19 1 4 3 -2 6 -13 5 -11 0 -14 -3 -6 -6z"/>
<path d="M9530 13160 c0 -5 5 -10 11 -10 5 0 7 5 4 10 -3 6 -8 10 -11 10 -2 0
-4 -4 -4 -10z"/>
<path d="M3945 13090 c-11 -17 5 -30 36 -30 31 0 36 9 17 28 -15 15 -45 16
-53 2z"/>
<path d="M9700 13090 c19 -13 30 -13 30 0 0 6 -10 10 -22 10 -19 0 -20 -2 -8
-10z"/>
<path d="M3630 12930 c0 -5 23 -10 50 -10 28 0 50 5 50 10 0 6 -22 10 -50 10
-27 0 -50 -4 -50 -10z"/>
<path d="M10035 12930 c-3 -5 -1 -10 4 -10 6 0 11 5 11 10 0 6 -2 10 -4 10 -3
0 -8 -4 -11 -10z"/>
<path d="M10005 12880 c-3 -5 -1 -10 4 -10 6 0 11 5 11 10 0 6 -2 10 -4 10 -3
0 -8 -4 -11 -10z"/>
<path d="M10345 12771 c-3 -5 -1 -12 4 -15 12 -8 41 3 41 15 0 12 -37 12 -45
0z"/>
<path d="M10555 12610 c-3 -5 1 -10 9 -10 9 0 16 5 16 10 0 6 -4 10 -9 10 -6
0 -13 -4 -16 -10z"/>
<path d="M10588 12582 c-43 -26 -33 -34 12 -11 22 12 40 23 40 25 0 9 -26 1
-52 -14z"/>
<path d="M3095 12500 c3 -5 8 -10 11 -10 2 0 4 5 4 10 0 6 -5 10 -11 10 -5 0
-7 -4 -4 -10z"/>
<path d="M2836 12463 c-9 -9 -7 -63 2 -63 14 0 32 23 32 41 0 17 -23 32 -34
22z"/>
<path d="M2912 12418 c-18 -18 -15 -28 8 -28 13 0 20 7 20 20 0 23 -10 26 -28
8z"/>
<path d="M2710 12290 c0 -5 14 -10 30 -10 17 0 30 5 30 10 0 6 -13 10 -30 10
-16 0 -30 -4 -30 -10z"/>
<path d="M2186 11972 c-8 -13 11 -35 23 -28 16 10 14 36 -3 36 -8 0 -17 -4
-20 -8z"/>
<path d="M11460 11969 c0 -5 9 -9 20 -9 11 0 20 2 20 4 0 2 -9 6 -20 9 -11 3
-20 1 -20 -4z"/>
<path d="M2240 11960 c0 -5 5 -10 10 -10 6 0 10 5 10 10 0 6 -4 10 -10 10 -5
0 -10 -4 -10 -10z"/>
<path d="M12447 11824 c-4 -4 -7 -14 -7 -23 0 -11 3 -12 11 -4 6 6 10 16 7 23
-2 6 -7 8 -11 4z"/>
<path d="M1707 11494 c-11 -11 5 -34 24 -34 12 0 19 7 19 20 0 19 -28 28 -43
14z"/>
<path d="M11932 11486 c1 -10 8 -17 13 -17 15 1 12 24 -3 29 -9 3 -13 -2 -10
-12z"/>
<path d="M1840 11480 c0 -5 5 -10 10 -10 6 0 10 5 10 10 0 6 -4 10 -10 10 -5
0 -10 -4 -10 -10z"/>
<path d="M1722 11358 c-14 -14 -16 -48 -3 -48 16 0 26 23 12 28 -9 3 -9 7 0
18 14 17 8 19 -9 2z"/>
<path d="M12210 11170 c0 -5 5 -10 10 -10 6 0 10 5 10 10 0 6 -4 10 -10 10 -5
0 -10 -4 -10 -10z"/>
<path d="M12255 11170 c-3 -5 -1 -10 4 -10 6 0 11 5 11 10 0 6 -2 10 -4 10 -3
0 -8 -4 -11 -10z"/>
<path d="M12445 11000 c-3 -5 -1 -10 4 -10 6 0 11 5 11 10 0 6 -2 10 -4 10 -3
0 -8 -4 -11 -10z"/>
<path d="M1230 10840 c0 -23 29 -27 48 -8 19 19 14 28 -18 28 -23 0 -30 -4
-30 -20z"/>
<path d="M1067 10694 c-11 -11 5 -34 24 -34 12 0 19 7 19 20 0 19 -28 28 -43
14z"/>
<path d="M12665 10540 c-19 -7 -19 -7 3 -19 12 -6 29 -25 37 -41 17 -34 45
-40 45 -11 0 28 -10 51 -23 51 -6 0 -18 6 -26 14 -10 8 -24 11 -36 6z"/>
<path d="M970 10370 c0 -5 9 -10 20 -10 11 0 20 5 20 10 0 6 -9 10 -20 10 -11
0 -20 -4 -20 -10z"/>
<path d="M750 10050 c0 -5 5 -10 10 -10 6 0 10 5 10 10 0 6 -4 10 -10 10 -5 0
-10 -4 -10 -10z"/>
<path d="M13085 10040 c-3 -5 -1 -10 4 -10 6 0 11 5 11 10 0 6 -2 10 -4 10 -3
0 -8 -4 -11 -10z"/>
<path d="M270 8925 c0 -8 5 -15 10 -15 6 0 10 7 10 15 0 8 -4 15 -10 15 -5 0
-10 -7 -10 -15z"/>
<path d="M301 8774 c0 -11 3 -14 6 -6 3 7 2 16 -1 19 -3 4 -6 -2 -5 -13z"/>
<path d="M110 7981 c0 -27 4 -41 13 -41 9 0 12 11 9 35 -6 50 -22 54 -22 6z"/>
<path d="M14 7177 c-10 -27 1 -150 14 -155 9 -3 12 17 12 77 0 74 -13 112 -26
78z"/>
<path d="M0 6782 c0 -153 4 -233 11 -237 7 -5 8 62 3 226 -4 129 -8 236 -10
238 -2 2 -4 -100 -4 -227z"/>
<path d="M41 6971 c-1 -27 2 -32 11 -23 8 8 8 17 0 34 -10 22 -11 21 -11 -11z"/>
<path d="M30 6676 c0 -14 5 -26 10 -26 6 0 10 9 10 19 0 11 -4 23 -10 26 -6 4
-10 -5 -10 -19z"/>
<path d="M7090 6550 c0 -5 5 -10 10 -10 6 0 10 5 10 10 0 6 -4 10 -10 10 -5 0
-10 -4 -10 -10z"/>
<path d="M1840 6200 c0 -5 5 -10 11 -10 5 0 7 5 4 10 -3 6 -8 10 -11 10 -2 0
-4 -4 -4 -10z"/>
<path d="M2997 6183 c-13 -12 -7 -23 16 -33 12 -5 33 -19 47 -29 29 -24 87
-40 76 -22 -4 6 -30 21 -57 32 -27 12 -56 30 -63 40 -7 11 -16 16 -19 12z"/>
<path d="M6648 6153 c7 -3 16 -2 19 1 4 3 -2 6 -13 5 -11 0 -14 -3 -6 -6z"/>
<path d="M2027 6134 c-12 -13 6 -33 36 -40 17 -3 48 -15 69 -26 40 -21 85 -18
100 5 14 22 8 27 -32 27 -22 0 -57 6 -77 14 -51 19 -89 27 -96 20z"/>
<path d="M400 6105 c0 -9 5 -15 11 -13 6 2 11 8 11 13 0 5 -5 11 -11 13 -6 2
-11 -4 -11 -13z"/>
<path d="M1546 6104 c-17 -12 -17 -14 -4 -14 9 0 20 5 23 11 11 17 2 18 -19 3z"/>
<path d="M6565 6110 c4 -6 11 -8 16 -5 14 9 11 15 -7 15 -8 0 -12 -5 -9 -10z"/>
<path d="M250 6099 c0 -5 5 -7 10 -4 6 3 10 8 10 11 0 2 -4 4 -10 4 -5 0 -10
-5 -10 -11z"/>
<path d="M280 6102 c0 -2 14 -8 31 -14 23 -8 27 -13 17 -19 -10 -7 -10 -9 2
-9 8 0 20 11 26 23 10 23 9 24 -33 23 -24 -1 -43 -2 -43 -4z"/>
<path d="M1244 6089 c-3 -6 -1 -16 6 -22 10 -9 11 -9 6 1 -5 9 3 12 31 12 28
0 34 3 23 10 -20 13 -57 13 -66 -1z"/>
<path d="M1400 6090 c0 -5 7 -10 15 -10 8 0 15 5 15 10 0 6 -7 10 -15 10 -8 0
-15 -4 -15 -10z"/>
<path d="M2308 6089 c-26 -14 -22 -32 5 -23 29 9 33 12 21 24 -5 5 -16 5 -26
-1z"/>
<path d="M436 6083 c-11 -11 -6 -23 9 -23 8 0 15 4 15 9 0 13 -16 22 -24 14z"/>
<path d="M537 6083 c-14 -13 -6 -23 19 -23 22 0 25 2 14 15 -14 16 -23 19 -33
8z"/>
<path d="M275 6070 c-3 -5 1 -10 10 -10 9 0 13 5 10 10 -3 6 -8 10 -10 10 -2
0 -7 -4 -10 -10z"/>
<path d="M705 6070 c3 -5 13 -10 21 -10 8 0 14 5 14 10 0 6 -9 10 -21 10 -11
0 -17 -4 -14 -10z"/>
<path d="M870 6070 c0 -5 6 -10 14 -10 8 0 18 5 21 10 3 6 -3 10 -14 10 -12 0
-21 -4 -21 -10z"/>
<path d="M7160 5946 c0 -7 -3 -28 -7 -46 -4 -22 -3 -31 4 -27 13 8 22 87 11
87 -5 0 -8 -6 -8 -14z"/>
<path d="M4315 5930 c-7 -12 2 -30 16 -30 12 0 12 27 0 35 -5 3 -12 1 -16 -5z"/>
<path d="M7473 5774 c-3 -8 0 -21 6 -27 10 -9 16 -8 26 7 8 10 12 23 9 27 -9
15 -34 10 -41 -7z"/>
<path d="M8260 5765 l-23 -25 25 0 c45 0 59 9 47 31 -13 25 -21 24 -49 -6z"/>
<path d="M8330 5780 c0 -5 9 -10 20 -10 11 0 20 5 20 10 0 6 -9 10 -20 10 -11
0 -20 -4 -20 -10z"/>
<path d="M7800 5760 c-25 -15 3 -33 39 -25 36 8 40 20 9 29 -30 7 -30 7 -48
-4z"/>
<path d="M5210 5749 c0 -5 5 -7 10 -4 6 3 10 8 10 11 0 2 -4 4 -10 4 -5 0 -10
-5 -10 -11z"/>
<path d="M7260 5750 c0 -5 12 -10 26 -10 14 0 23 4 19 10 -3 6 -15 10 -26 10
-10 0 -19 -4 -19 -10z"/>
<path d="M11955 5050 c-10 -17 12 -37 25 -24 8 8 6 15 -4 23 -10 9 -16 9 -21
1z"/>
<path d="M7470 4643 c-24 -17 -210 -18 -3484 -23 -2755 -4 -3460 -8 -3464 -17
-6 -19 -35 -15 -55 7 -9 11 -21 20 -26 20 -18 0 -24 -23 -9 -34 12 -9 13 -15
4 -29 -8 -12 -8 -22 2 -37 6 -11 12 -26 12 -33 0 -19 44 -37 89 -37 43 0 51
-13 51 -82 0 -37 14 -59 23 -36 9 24 53 -35 81 -109 28 -72 53 -109 40 -59 -7
31 6 34 30 7 13 -14 15 -24 8 -38 -6 -10 -11 -54 -13 -99 -3 -79 -3 -81 28
-110 18 -16 41 -47 52 -69 19 -35 19 -40 5 -48 -9 -5 -34 -6 -55 -3 -35 6 -39
4 -39 -15 0 -19 4 -20 54 -14 36 5 56 3 61 -4 5 -9 10 -9 21 0 11 9 15 7 20
-7 3 -11 10 -29 15 -41 5 -14 5 -33 -2 -50 -10 -26 -9 -27 9 -10 18 16 20 16
26 2 3 -9 6 -28 6 -42 0 -15 14 -41 35 -64 21 -24 32 -44 29 -54 -4 -10 -2
-15 6 -13 16 4 60 -58 67 -95 3 -16 12 -31 20 -34 10 -4 11 -9 2 -19 -9 -11
-5 -16 15 -25 14 -7 25 -17 24 -23 0 -6 4 -24 10 -39 7 -16 12 -42 12 -58 0
-25 4 -29 28 -29 37 0 46 -8 59 -54 14 -45 10 -56 -18 -56 -14 0 -19 -7 -19
-30 0 -16 3 -30 6 -30 16 0 44 23 44 35 0 24 27 17 53 -15 17 -20 24 -37 20
-52 -5 -23 -5 -23 10 -3 16 20 16 20 17 -2 0 -12 -4 -25 -10 -28 -5 -3 -10
-14 -10 -24 0 -19 26 -31 68 -31 12 0 22 -4 22 -10 0 -5 23 -12 50 -16 32 -4
50 -11 50 -20 0 -8 5 -14 10 -14 6 0 10 7 10 15 0 36 112 10 147 -35 8 -10 29
-15 67 -14 31 0 56 -4 56 -8 0 -4 16 -8 36 -8 46 0 70 -14 78 -45 5 -20 12
-25 39 -24 27 0 29 2 12 9 -18 8 -17 9 8 9 15 1 27 6 27 11 0 6 22 10 49 10
28 0 51 5 53 11 6 17 135 24 153 9 16 -13 45 -7 45 10 0 5 -16 10 -35 10 -38
0 -48 19 -15 27 11 3 20 9 20 14 0 14 28 11 33 -3 3 -10 14 -9 49 3 43 15 46
14 57 -3 6 -9 22 -20 36 -24 41 -10 29 -26 -15 -20 -22 3 -58 9 -80 12 l-40 6
0 -51 0 -51 40 0 40 0 0 40 c0 32 4 40 18 40 29 0 62 -29 62 -56 l0 -24 160 0
160 0 0 -40 0 -40 -40 0 -40 0 0 -80 0 -80 -39 0 c-22 0 -43 5 -46 10 -8 12
-45 13 -45 1 0 -5 11 -12 25 -15 21 -5 25 -12 25 -41 0 -33 -2 -35 -34 -35
-35 0 -56 15 -34 23 21 7 -4 27 -43 33 -29 5 -40 1 -68 -25 -32 -30 -36 -31
-127 -31 l-94 0 0 -35 0 -35 -62 0 c-35 0 -107 -3 -161 -7 -78 -5 -100 -10
-104 -22 -2 -9 -9 -24 -14 -34 -8 -15 -5 -24 16 -43 25 -23 25 -24 7 -41 -10
-10 -27 -23 -38 -29 -15 -9 -16 -15 -7 -24 17 -19 62 -4 92 31 21 24 33 29 68
29 57 0 61 -27 6 -32 -32 -2 -39 -7 -42 -28 -1 -14 -8 -28 -14 -32 -24 -15 5
-21 39 -9 30 11 38 11 44 1 5 -7 6 -18 4 -25 -6 -14 40 -55 61 -55 9 0 18 -7
21 -15 4 -8 10 -12 15 -9 5 3 24 -6 42 -20 19 -15 39 -26 45 -26 6 0 24 -11
41 -25 26 -22 29 -31 27 -69 -2 -24 -6 -48 -10 -54 -3 -6 1 -18 10 -27 15 -15
17 -14 29 2 13 17 16 17 77 -5 35 -12 86 -22 113 -23 28 0 59 -4 70 -9 19 -7
18 -9 -8 -19 -16 -6 -37 -11 -48 -11 -10 0 -19 -4 -19 -10 0 -5 23 -10 50 -10
48 0 50 -1 50 -28 0 -44 16 -52 106 -52 76 0 83 -2 89 -22 5 -15 1 -26 -14
-37 -17 -13 -20 -23 -15 -54 6 -35 9 -37 43 -38 37 0 90 -17 61 -18 -10 -1
-11 -4 -4 -9 6 -4 11 -18 10 -32 0 -13 5 -25 12 -26 6 -1 16 -2 21 -3 4 0 20
-12 35 -26 24 -22 26 -28 14 -42 -12 -15 -10 -16 12 -9 53 15 100 19 100 7 0
-6 13 -11 30 -11 21 0 28 -4 24 -14 -3 -8 3 -17 14 -20 11 -4 22 -16 25 -26 3
-13 14 -20 29 -20 30 0 44 -10 53 -38 8 -27 41 -42 91 -42 24 0 34 -5 34 -15
0 -8 5 -15 10 -15 6 0 15 -12 20 -26 8 -21 15 -25 41 -22 29 3 33 -1 44 -32
11 -33 15 -35 77 -45 75 -12 152 -50 167 -83 6 -12 11 -37 11 -53 0 -26 3 -30
23 -27 16 2 23 11 25 31 2 17 8 26 15 24 7 -3 11 -9 10 -15 -2 -6 11 -22 27
-36 17 -13 35 -37 41 -53 6 -16 13 -22 16 -15 7 18 31 14 29 -5 -1 -20 38 -30
57 -15 17 13 65 -9 59 -27 -6 -19 17 -31 64 -31 22 0 44 -4 50 -9 5 -4 21 -11
37 -15 21 -5 27 -3 27 10 0 16 1 16 18 1 10 -10 24 -17 31 -17 9 0 11 -9 6
-30 -6 -26 -3 -30 22 -35 15 -4 40 -11 55 -17 14 -5 36 -7 47 -3 11 3 28 1 38
-4 10 -5 34 -12 54 -16 19 -3 53 -14 74 -25 22 -11 47 -20 56 -20 9 0 30 -5
48 -11 25 -9 29 -14 20 -25 -9 -10 -8 -15 2 -18 30 -10 99 -11 102 -1 2 5 15
2 30 -8 14 -9 44 -17 66 -17 45 0 60 -14 34 -29 -17 -10 -16 -12 7 -31 28 -22
66 -26 72 -9 3 9 9 9 25 0 12 -6 65 -11 117 -11 79 0 96 -3 96 -15 0 -12 4
-13 18 -4 14 9 24 9 38 1 12 -7 14 -12 5 -12 -8 0 -3 -8 12 -20 29 -23 44 -25
49 -8 3 8 11 9 24 3 10 -5 24 -10 29 -10 6 -1 17 -4 25 -8 8 -3 42 -8 75 -11
70 -8 163 -34 186 -53 18 -15 75 -17 84 -3 4 7 14 5 28 -5 30 -21 78 -20 70 1
-5 15 0 16 43 8 27 -4 109 -7 183 -5 106 2 132 0 126 -10 -6 -9 -2 -10 16 -4
13 4 42 8 64 7 22 0 400 -4 840 -7 440 -4 830 -7 867 -8 36 0 72 4 80 10 22
18 76 23 90 10 7 -7 20 -16 29 -19 21 -8 287 7 296 16 15 15 -24 26 -90 26
-75 0 -87 15 -28 35 23 7 39 22 50 45 18 38 51 50 78 28 13 -10 17 -10 20 0 4
9 45 12 162 12 146 0 159 1 176 20 24 26 71 24 67 -3 -2 -12 4 -17 23 -17 18
0 25 5 25 20 0 18 7 20 80 20 l80 0 0 40 0 40 -100 0 c-87 0 -100 2 -100 17 0
13 3 14 12 5 8 -8 17 -8 30 -1 11 6 75 13 144 16 120 6 126 5 140 -16 18 -25
38 -18 31 11 -8 28 2 48 23 48 10 0 22 9 25 20 9 28 35 25 35 -3 0 -35 10 -39
44 -15 44 31 48 41 26 60 -23 18 -25 28 -9 28 7 0 17 7 23 15 10 14 109 22
171 14 11 -1 48 -2 83 -1 l62 2 0 74 0 74 73 6 c39 4 89 7 110 9 l38 2 4 63
c1 35 5 66 8 68 3 3 16 -6 30 -20 37 -37 57 -34 57 9 0 39 0 39 102 35 39 -1
48 2 59 22 13 26 68 81 70 70 1 -4 4 9 8 28 5 30 11 35 44 43 31 8 38 13 34
28 -4 15 0 19 23 19 32 0 50 -18 30 -30 -17 -11 13 -20 66 -20 l44 0 0 79 c0
47 4 83 11 87 6 3 17 20 24 37 12 30 14 31 72 28 82 -3 111 10 115 51 l3 33
31 -46 c17 -25 34 -59 38 -75 l8 -29 14 40 c9 25 13 57 9 88 -5 43 -4 48 20
59 29 13 32 23 8 37 -15 9 -14 10 10 11 20 0 30 6 34 20 4 16 8 18 19 9 11 -9
19 -8 34 6 24 22 26 6 4 -37 -10 -20 -12 -34 -6 -40 18 -18 32 2 32 47 0 41 7
66 33 123 6 12 31 36 56 52 25 16 52 35 60 42 18 15 118 27 129 16 11 -11 42
0 42 14 0 6 -8 17 -17 24 -13 9 -14 13 -4 14 7 0 11 6 7 15 -3 8 -1 15 4 15 6
0 10 18 10 41 l0 41 83 -3 82 -4 3 83 3 82 30 0 c21 0 32 6 38 22 5 14 10 17
15 10 12 -20 36 -13 46 14 6 14 19 28 31 31 19 5 19 7 3 24 -16 18 -16 20 1
39 14 15 31 20 72 20 29 0 53 4 53 9 0 5 3 16 6 25 4 11 -2 19 -17 25 -17 7
-19 10 -7 10 20 1 38 30 38 60 0 12 3 21 8 22 4 1 22 2 40 4 17 1 40 9 49 16
13 11 17 11 20 2 5 -15 43 -18 43 -3 0 6 -7 10 -16 10 -13 0 -14 3 -4 15 6 8
9 18 6 23 -3 6 0 15 7 21 8 6 12 23 9 40 -3 22 1 32 16 40 12 6 22 23 24 38 4
36 26 41 30 6 3 -24 8 -28 37 -31 41 -4 39 14 -5 38 -20 12 -30 25 -32 47 -5
45 17 56 119 61 49 3 89 8 89 13 0 5 -7 9 -15 9 -20 0 -19 8 4 53 13 26 21 33
25 22 14 -38 24 -6 28 95 2 61 9 115 15 121 18 18 61 -7 65 -38 2 -22 9 -29
36 -34 40 -8 39 -10 45 164 5 118 7 128 28 146 13 10 30 16 38 13 7 -3 19 1
25 9 6 8 23 22 38 32 25 16 27 22 30 99 l3 83 32 10 c17 6 40 18 51 28 10 9
31 17 45 17 29 0 38 26 12 36 -12 5 -12 9 4 23 15 12 17 21 11 39 -5 12 -15
22 -21 22 -8 0 -8 4 1 15 10 12 10 18 0 30 -9 11 -8 19 4 37 9 12 16 30 16 40
0 26 32 38 98 38 65 0 81 13 57 46 -9 13 -10 26 -4 42 5 13 9 34 9 48 0 14 6
24 14 24 13 0 13 4 0 28 -7 15 -14 48 -14 73 0 50 9 59 56 59 23 0 24 3 24 68
0 69 10 92 40 92 23 0 37 29 45 98 l7 62 54 0 54 0 0 44 c0 79 -47 150 -67
100 -5 -13 -7 -13 -14 -2 -7 11 -330 14 -1846 19 -1694 5 -1841 7 -1875 22
-49 22 -131 22 -153 0 -15 -15 -89 -16 -878 -17 -806 -1 -864 0 -887 17 -16
11 -43 17 -80 17 -37 0 -64 -6 -80 -17z m2125 -65 l260 -2 -220 -7 c-121 -3
-274 -7 -340 -8 -72 0 -115 -5 -110 -10 9 -8 153 -20 253 -21 18 0 31 -4 27
-9 -3 -6 14 -11 37 -13 99 -7 -1376 -19 -1555 -12 l-197 7 0 23 c0 13 10 34
22 46 l21 21 771 -6 c424 -4 888 -8 1031 -9z m1662 -54 c-3 -3 -12 -4 -19 -1
-8 3 -5 6 6 6 11 1 17 -2 13 -5z m168 -4 c43 -7 39 -7 -36 -6 -48 0 -85 4 -82
9 5 9 52 8 118 -3z m129 -30 c25 2 28 -1 16 -15 -11 -13 -8 -15 18 -15 21 0
32 6 35 18 4 13 5 11 6 -5 1 -21 -4 -23 -46 -24 -372 -8 -503 -7 -508 1 -4 7
74 10 221 10 l227 0 -6 38 -6 37 19 -23 c10 -13 21 -23 24 -22z m-532 -18 c15
-6 13 -11 -12 -42 l-29 -35 -546 -5 -547 -5 -19 -24 c-13 -15 -19 -36 -17 -55
l3 -31 450 -8 c284 -5 533 -4 675 3 268 12 890 13 890 2 0 -5 -15 -7 -32 -5
-22 3 -29 1 -20 -5 25 -17 -96 -21 -531 -19 -235 1 -427 -2 -427 -6 0 -4 -6
-7 -12 -6 -7 2 -32 -1 -56 -5 -32 -6 -42 -12 -40 -24 5 -26 45 -27 58 -3 15
28 73 29 93 1 13 -19 30 -20 388 -26 318 -5 483 -14 494 -26 2 -2 0 -18 -2
-36 l-6 -34 -771 5 c-424 3 -899 10 -1056 16 -301 12 -873 18 -1997 20 l-683
1 0 25 0 25 798 1 c1726 3 2085 1 2149 -11 51 -11 87 -10 207 4 79 9 169 16
199 16 39 0 56 4 60 15 4 8 2 17 -3 20 -29 18 -324 26 -665 18 -203 -4 -467
-5 -585 -2 -118 4 -295 7 -392 8 -106 1 -179 5 -183 11 -4 7 73 10 224 10
l231 0 0 29 c0 52 -26 69 -120 80 -47 6 -411 13 -810 16 -399 3 -915 8 -1148
11 l-423 6 3 27 3 26 410 0 c226 0 542 -4 703 -9 220 -7 292 -6 292 2 0 9 37
12 123 13 67 1 136 5 152 9 37 9 2504 11 2527 2z m-4647 -47 c0 -18 -8 -20
-85 -25 -47 -3 -351 -3 -676 -1 -541 3 -592 5 -590 20 4 24 89 27 756 27 588
-1 595 -1 595 -21z m5010 -16 c-52 -11 -371 -9 -354 2 8 5 100 8 204 8 131 -1
178 -4 150 -10z m-2580 -159 c-3 -5 -28 -10 -56 -10 -27 0 -49 5 -49 10 0 6
25 10 56 10 34 0 53 -4 49 -10z m-3190 -11 c19 -30 -16 -36 -251 -44 -272 -8
-1391 5 -1324 16 25 4 88 8 140 8 52 1 106 4 119 8 23 6 23 7 5 13 -10 4 279
8 643 8 438 1 664 -2 668 -9z m-245 -118 l115 -6 3 -27 3 -26 -1043 -6 c-574
-3 -1209 -9 -1413 -12 -368 -5 -505 1 -512 22 -3 8 84 13 304 17 169 3 414 11
543 17 440 21 1748 35 2000 21z m1095 -81 c0 -13 -60 -15 -474 -18 -413 -2
-472 0 -462 12 18 22 38 23 506 22 375 -1 430 -3 430 -16z m3648 -6 c31 -6 37
-11 37 -30 l0 -24 -217 0 c-120 0 -337 -3 -483 -6 -146 -3 -290 -2 -320 3 -54
9 -54 9 -30 23 57 32 142 38 560 39 228 0 432 -2 453 -5z m237 -174 c4 -19 4
-41 2 -47 -3 -10 -104 -13 -462 -13 -516 0 -580 -3 -580 -31 0 -11 9 -21 23
-23 12 -3 292 -8 622 -11 1615 -14 1861 -17 1868 -25 5 -4 5 -23 2 -42 l-7
-35 -121 -7 c-67 -3 -266 -7 -442 -7 -176 -1 -325 -6 -330 -10 -24 -18 -195
-31 -318 -26 -73 4 -244 0 -399 -9 -259 -14 -272 -16 -299 -38 -15 -13 -25
-27 -22 -30 4 -3 137 -6 297 -6 304 0 652 -10 626 -18 -8 -3 -35 -13 -59 -24
-23 -11 -75 -28 -115 -38 l-71 -19 300 -1 c238 0 297 -3 284 -13 -8 -7 -18
-20 -22 -29 -6 -17 -30 -18 -309 -18 -473 0 -1434 -36 -1603 -60 -74 -11 -138
-28 -110 -29 12 -1 26 -6 31 -11 6 -6 87 -10 205 -10 192 -1 253 4 275 22 18
14 594 19 619 5 12 -7 95 -12 210 -14 303 -4 478 -12 488 -22 5 -5 -62 -10
-172 -13 -123 -2 -184 -7 -189 -15 -5 -7 -75 -13 -217 -17 -115 -4 -226 -9
-245 -12 -34 -6 -1057 -16 -1367 -13 -99 0 -163 -3 -163 -9 0 -18 1383 -28
1458 -10 4 1 189 -2 412 -6 277 -6 459 -4 575 3 137 9 179 9 214 -1 25 -8 46
-18 48 -24 6 -19 -61 -23 -376 -23 -215 -1 -308 -4 -318 -12 -7 -7 -11 -14 -8
-17 3 -3 103 -8 223 -12 133 -5 227 -12 240 -19 25 -13 29 -52 8 -70 -9 -8
-277 -13 -945 -18 l-932 -6 3 -21 c3 -21 8 -21 293 -23 163 -2 284 1 277 6
-24 15 27 21 192 21 140 0 160 -2 172 -17 12 -15 15 -16 23 -4 10 15 45 26 36
11 -3 -5 -1 -11 5 -15 5 -3 10 -1 10 4 0 15 77 14 82 -1 5 -15 715 6 793 23
87 19 374 -7 625 -57 93 -19 182 -28 344 -34 121 -6 221 -12 223 -14 2 -2 -6
-15 -19 -29 l-23 -26 -605 -6 c-333 -4 -713 -13 -845 -20 -210 -11 -245 -15
-280 -33 -35 -18 -63 -22 -205 -26 -91 -3 -193 -5 -227 -6 -59 0 -63 -1 -63
-23 0 -43 15 -47 175 -47 226 0 366 -10 352 -25 -7 -7 -17 -11 -23 -8 -6 2
-19 -3 -28 -13 -12 -11 -40 -18 -87 -22 -62 -4 -72 -8 -79 -28 -8 -21 -16 -23
-97 -27 -48 -2 -233 -3 -410 -2 -178 1 -323 -2 -323 -7 0 -4 6 -8 13 -8 9 0 9
-2 0 -8 -6 -4 67 -6 162 -5 118 2 176 -1 181 -8 4 -8 -5 -9 -32 -5 -22 3 -84
2 -139 -2 -162 -12 711 -21 1075 -12 455 13 1077 12 1101 -1 19 -10 19 -10 -1
-40 -24 -32 -14 -38 34 -19 34 13 33 8 -9 -39 l-35 -38 -228 3 c-125 3 -270 9
-322 14 -106 11 -1533 19 -1650 9 -129 -10 -15 -16 400 -20 503 -5 542 -13
110 -23 -212 -5 -400 -10 -417 -10 -52 -1 -38 -16 15 -17 26 -1 112 -5 192
-10 80 -4 282 -13 450 -19 168 -5 340 -14 382 -18 43 -4 79 -4 80 -1 2 4 26 3
53 -1 28 -5 79 -9 115 -10 54 0 62 -3 45 -12 -14 -8 -140 -13 -410 -16 -214
-2 -394 -8 -399 -12 -20 -19 39 -33 121 -27 83 6 84 6 94 -20 l9 -26 243 6
c133 2 223 3 200 0 -41 -4 -48 -11 -44 -41 1 -6 -9 -16 -23 -21 -38 -15 -41
-31 -7 -31 17 0 31 -4 31 -8 0 -12 -2820 -23 -2842 -11 -9 5 -210 9 -452 9
l-436 0 0 35 0 35 323 0 c177 1 507 5 732 10 226 6 686 14 1023 19 337 5 616
12 620 16 29 29 -62 30 -1632 25 -901 -2 -1058 -1 -1054 11 6 19 386 28 1238
28 592 0 988 6 1965 29 l320 7 -470 7 c-258 3 -851 9 -1317 13 l-848 8 0 28 0
29 444 0 444 0 5 22 c4 12 4 24 2 26 -2 3 -381 7 -842 11 -768 6 -841 8 -870
24 -28 15 -65 17 -303 17 -154 0 -279 4 -289 10 -10 5 -58 12 -107 15 -49 3
-97 8 -108 12 -10 3 -21 1 -25 -5 -4 -6 -38 -7 -96 -1 -55 5 -94 4 -99 -2 -6
-5 -26 -9 -45 -8 -32 1 -33 2 -11 8 24 7 24 7 -8 14 -34 7 -78 1 -97 -13 -5
-4 -62 -8 -125 -9 -85 -1 -111 2 -100 10 11 8 -21 9 -115 3 -129 -7 -198 -8
-530 -14 -135 -2 -157 -5 -105 -10 36 -4 399 -8 808 -9 487 -1 742 -4 742 -11
0 -7 -281 -10 -822 -10 l-823 0 -45 31 c-106 71 -134 81 -243 80 -55 -1 -129
-6 -165 -12 -71 -13 -127 -8 -277 21 -55 10 -178 31 -273 45 -225 34 -247 41
-247 80 0 28 3 31 45 38 25 4 117 12 205 17 88 5 205 13 260 19 123 13 432 14
439 2 9 -14 138 0 165 18 35 23 149 28 896 40 358 6 774 18 925 26 151 8 318
15 370 15 106 0 170 8 170 21 0 5 -11 9 -25 9 -14 0 -25 5 -25 11 0 6 -10 19
-22 29 -19 15 -20 20 -9 34 7 8 28 18 47 22 38 7 39 8 47 45 6 23 1 29 -41 50
-26 13 -48 32 -50 42 -3 14 4 17 41 17 l44 0 7 51 c4 28 4 54 1 57 -3 3 -216
9 -473 13 -257 5 -701 13 -987 19 -286 5 -650 10 -810 10 -159 0 -296 4 -304
9 -18 12 2 49 32 56 12 3 396 9 854 13 601 5 835 10 843 18 9 9 -210 13 -872
18 -485 3 -997 9 -1136 12 l-253 6 3 32 3 31 1230 0 1229 0 9 -36 8 -36 300
-7 c164 -4 304 -4 309 -1 6 3 10 21 10 39 l0 33 107 6 c58 4 355 7 660 7 362
0 553 3 553 10 0 6 37 11 88 12 48 0 -3 5 -113 9 -110 4 -231 13 -270 19 -38
6 -158 11 -265 10 -322 -2 -860 12 -860 23 0 5 15 7 34 5 20 -2 32 0 29 6 -4
5 6 7 21 4 17 -4 25 -1 23 6 -2 6 -28 13 -58 15 l-54 5 60 5 c53 5 60 9 63 29
2 12 9 22 15 23 7 0 64 2 127 5 63 3 117 7 119 10 3 3 -54 4 -127 2 l-133 -3
7 102 7 101 -57 7 c-31 4 -59 11 -62 16 -3 5 -134 9 -291 9 l-285 0 7 -112 7
-111 -863 6 c-908 7 -1029 11 -1029 33 0 18 14 25 68 32 45 7 47 9 50 41 l3
34 -193 -6 c-106 -4 -331 -10 -499 -13 l-306 -7 -29 32 -29 33 -331 -4 c-279
-2 -334 -1 -349 12 -14 12 -81 15 -373 20 -343 5 -357 6 -360 24 -10 48 -115
46 2332 47 1266 1 2486 5 2711 8 226 4 993 7 1705 7 l1295 -1 5 -35z m1123
-57 c-13 -2 -33 -2 -45 0 -13 2 -3 4 22 4 25 0 35 -2 23 -4z m274 1 c-3 -3
-12 -4 -19 -1 -8 3 -5 6 6 6 11 1 17 -2 13 -5z m210 -6 c-17 -11 -59 -10 -77
2 -11 7 0 9 37 8 29 -1 47 -6 40 -10z m-327 -6 c0 -5 -13 -7 -30 -4 -16 2 -30
6 -30 8 0 2 14 4 30 4 17 0 30 -4 30 -8z m25 -2 c3 -5 1 -10 -4 -10 -6 0 -11
5 -11 10 0 6 2 10 4 10 3 0 8 -4 11 -10z m375 0 c0 -5 -4 -10 -10 -10 -5 0
-10 5 -10 10 0 6 5 10 10 10 6 0 10 -4 10 -10z m-1427 -7 c-13 -2 -33 -2 -45
0 -13 2 -3 4 22 4 25 0 35 -2 23 -4z m334 1 c-3 -3 -12 -4 -19 -1 -8 3 -5 6 6
6 11 1 17 -2 13 -5z m596 -1 c-13 -2 -33 -2 -45 0 -13 2 -3 4 22 4 25 0 35 -2
23 -4z m-4981 -285 c2 -17 12 -25 38 -29 19 -4 -169 -7 -419 -6 -249 0 -467 3
-485 7 -32 7 242 20 417 20 60 0 96 4 92 10 -6 10 58 15 237 18 114 2 117 1
120 -20z m26 -445 c3 -10 -47 -13 -229 -13 -151 0 -230 3 -223 10 5 5 79 11
164 13 244 5 283 3 288 -10z m-56 -45 c15 -23 19 -23 279 -28 145 -3 270 -9
277 -13 14 -9 16 -33 4 -41 -9 -5 -238 -22 -415 -30 -54 -2 -101 -7 -104 -10
-12 -12 7 -18 82 -27 41 -4 81 -11 87 -15 7 -5 28 -10 48 -14 43 -7 55 -42 18
-56 -34 -12 -1959 -16 -1978 -3 -13 8 -12 12 9 29 13 11 37 20 55 20 17 0 54
7 81 16 31 9 107 17 200 20 399 12 722 26 745 32 86 20 -65 23 -2290 47 -311
3 -575 8 -588 11 -17 3 -22 10 -20 27 3 20 10 23 98 30 52 4 732 11 1510 16
778 4 1521 8 1651 9 235 2 237 2 251 -20z m-1898 -204 c9 -3 16 -11 16 -17 0
-8 -3 -8 -11 0 -6 6 -18 9 -26 6 -12 -5 -12 -7 -1 -14 7 -5 -25 -8 -77 -7 -89
1 -89 2 -25 7 l65 6 -50 8 c-27 4 -59 5 -70 3 -11 -3 -51 -6 -90 -7 l-70 -3
75 -6 c69 -7 19 -7 -197 0 -32 0 -28 8 10 19 35 10 426 15 451 5z m5296 -374
c-20 -13 -50 -13 -50 0 0 6 15 10 33 10 24 0 28 -3 17 -10z m-3857 -47 c-7 -2
-19 -2 -25 0 -7 3 -2 5 12 5 14 0 19 -2 13 -5z m154 1 c-3 -3 -12 -4 -19 -1
-8 3 -5 6 6 6 11 1 17 -2 13 -5z m389 -136 c24 -25 -31 -28 -530 -28 -557 0
-976 9 -976 20 0 4 11 6 23 5 13 -2 69 1 123 5 113 10 1350 7 1360 -2z m1402
-20 l3 -28 -463 0 c-255 0 -500 3 -545 7 -79 6 -83 7 -83 30 l0 23 543 -2 542
-3 3 -27z m2209 -4 c-3 -3 -12 -4 -19 -1 -8 3 -5 6 6 6 11 1 17 -2 13 -5z
m-4802 -202 l1200 -7 3 -21 3 -22 -708 -7 c-758 -8 -1695 -2 -2223 16 -179 6
-369 10 -422 9 -64 -1 -98 2 -98 9 0 11 19 13 95 13 l40 -1 -35 9 c-19 5 -72
7 -117 4 -56 -3 -83 -2 -83 6 0 7 170 9 573 5 314 -3 1112 -9 1772 -13z
m-2292 -19 c-7 -2 -19 -2 -25 0 -7 3 -2 5 12 5 14 0 19 -2 13 -5z m7934 -69
c-3 -3 -12 -4 -19 -1 -8 3 -5 6 6 6 11 1 17 -2 13 -5z m-1585 -47 c929 -1
1688 -5 1688 -8 0 -7 -62 -19 -103 -19 -17 0 -26 -4 -22 -11 4 -6 13 -8 21 -5
8 3 14 1 14 -4 0 -6 8 -10 18 -11 14 0 14 -2 -3 -9 -12 -5 -14 -9 -6 -9 8 -1
12 -3 9 -6 -3 -3 -676 -5 -1497 -5 -1453 0 -1491 0 -1491 -19 0 -14 10 -20 38
-24 20 -4 540 -10 1155 -13 615 -4 1114 -11 1110 -15 -5 -5 -181 -9 -392 -9
-210 -1 -381 -4 -378 -6 11 -12 252 -26 410 -24 54 1 67 -2 67 -15 0 -11 -11
-15 -39 -15 -33 0 -40 -4 -43 -22 -4 -32 -37 -37 -298 -46 l-225 -7 440 -8
c450 -8 477 -10 579 -47 49 -17 93 -23 235 -28 l176 -7 -39 -30 -39 -30 -651
-5 c-358 -3 -795 -2 -971 1 -176 4 -828 8 -1450 9 -953 3 -1526 10 -1440 18
13 1 21 9 21 22 0 11 -4 20 -8 20 -4 0 -8 13 -8 30 0 17 -7 33 -17 39 -16 9
-16 10 -2 11 16 0 34 38 24 49 -3 2 -5 -1 -5 -7 0 -7 -10 -12 -22 -12 -23 1
-23 1 2 15 36 21 139 17 168 -6 13 -10 43 -21 68 -25 24 -3 44 -10 44 -14 0
-5 8 -10 18 -12 9 -2 -7 -10 -35 -17 -29 -7 -53 -16 -53 -21 0 -12 57 -20 151
-20 71 0 90 3 97 16 8 14 31 16 190 13 162 -4 181 -2 185 12 3 9 19 20 36 24
37 8 91 50 91 71 0 20 -42 34 -103 34 -63 0 -74 7 -79 45 l-3 30 -205 3 c-113
1 -216 0 -230 -3 -22 -6 -23 -8 -7 -16 9 -6 17 -21 17 -34 0 -21 -6 -24 -57
-32 -75 -10 -720 -7 -1113 5 -168 6 -451 15 -630 20 -179 6 -347 16 -375 23
-31 7 -219 14 -505 20 -250 4 -473 12 -495 18 l-40 9 42 1 c24 1 48 8 58 18
14 13 44 17 158 21 78 2 144 8 147 12 3 4 232 10 510 12 447 4 509 6 542 21
34 15 104 18 655 22 340 3 727 7 861 10 l243 5 5 -29 6 -28 199 -7 c110 -4
204 -4 209 -1 6 3 10 22 10 42 l0 35 338 -6 c185 -3 1096 -7 2024 -9z m-5699
-64 c-13 -2 -33 -2 -45 0 -13 2 -3 4 22 4 25 0 35 -2 23 -4z m6642 -123 c3 -5
1 -10 -4 -10 -6 0 -11 5 -11 10 0 6 2 10 4 10 3 0 8 -4 11 -10z m-402 -7 c-7
-2 -19 -2 -25 0 -7 3 -2 5 12 5 14 0 19 -2 13 -5z m-1703 -339 c20 -20 -243
-34 -631 -34 -207 0 -424 3 -482 7 -96 5 -107 8 -107 25 0 19 15 19 605 16
414 -2 607 -6 615 -14z m208 -110 c-8 -7 -388 -7 -396 0 -3 3 86 6 198 6 112
0 201 -3 198 -6z m152 -3 c0 -5 10 -11 23 -13 12 -2 -11 -4 -52 -5 -52 -1 -78
3 -88 13 -12 12 -5 14 51 14 36 0 66 -4 66 -9z m180 -1 l35 -2 -30 -8 c-44
-11 -114 -12 -95 0 10 6 2 10 -30 13 -25 2 -16 3 20 1 36 -2 81 -4 100 -4z
m87 4 c-3 -3 -12 -4 -19 -1 -8 3 -5 6 6 6 11 1 17 -2 13 -5z m806 -122 c9 -8
111 -13 318 -14 l304 -3 -103 -62 -103 -63 -1544 0 c-849 0 -1546 -4 -1549 -8
-2 -4 498 -9 1111 -11 614 -1 1123 -6 1132 -9 12 -5 8 -8 -14 -13 -27 -6 -26
-7 12 -8 23 0 43 -6 45 -11 4 -12 240 -29 438 -32 74 -1 114 -3 87 -5 -26 -2
-45 -8 -43 -12 3 -4 27 -6 53 -4 l48 3 -45 -24 c-43 -23 -56 -24 -260 -27
-151 -3 -230 0 -265 9 -83 21 -578 31 -1536 32 -498 0 -908 2 -911 5 -3 3 -2
20 1 38 6 28 11 32 41 35 99 8 121 56 37 77 -26 7 -46 29 -35 40 2 3 278 9
614 15 986 16 1090 20 1112 39 17 14 75 16 531 20 368 3 514 1 524 -7z m-3318
-37 c334 -6 385 -10 385 -35 0 -10 -6 -19 -12 -21 -30 -9 -838 3 -833 12 4 5
-9 12 -27 16 l-33 7 30 7 c26 6 23 7 -20 9 l-50 3 45 6 c25 4 88 5 140 4 52
-2 221 -5 375 -8z m384 -147 c65 -11 71 -14 77 -41 3 -15 4 -30 2 -32 -2 -3
-319 -5 -704 -6 -384 -1 -705 -4 -711 -7 -7 -2 -13 -13 -13 -23 0 -18 12 -19
263 -19 144 0 280 5 302 10 49 11 845 0 845 -12 0 -4 -17 -8 -37 -8 -35 -1
-36 -2 -19 -15 10 -7 15 -18 11 -24 -4 -7 13 -11 51 -11 l56 0 -7 37 -6 36
153 -8 c84 -5 644 -9 1243 -10 972 -2 1096 -4 1150 -19 36 -10 101 -16 170
-17 l110 -1 -84 -39 c-45 -22 -140 -63 -210 -91 l-126 -52 -1400 -4 c-770 -1
-1593 -4 -1830 -5 -343 -1 -442 1 -489 12 -32 8 -60 21 -63 29 -3 7 -17 18
-32 24 -20 9 -22 12 -9 15 15 4 15 8 -3 51 -28 66 -58 107 -94 129 -27 16 -55
18 -333 17 -166 0 -297 3 -290 8 7 4 9 8 3 9 -5 0 -1 4 9 8 16 6 14 10 -17 24
-24 12 -64 17 -129 18 l-93 2 95 9 c52 5 185 6 295 3 110 -3 483 -8 829 -11
567 -5 630 -4 638 10 8 14 34 16 168 16 88 0 191 -5 229 -12z m2599 -15 c-10
-2 -26 -2 -35 0 -10 3 -2 5 17 5 19 0 27 -2 18 -5z m549 -39 c-3 -3 -12 -4
-19 -1 -8 3 -5 6 6 6 11 1 17 -2 13 -5z m-5212 -34 c-3 -5 -14 -10 -23 -9 -14
0 -13 2 3 9 27 11 27 11 20 0z m104 -244 c110 -3 176 -9 181 -15 4 -7 69 -14
161 -19 l154 -7 -155 -10 c-85 -6 -267 -9 -405 -8 -241 3 -253 4 -323 29 -39
14 -74 30 -77 34 -3 5 61 7 142 4 82 -2 226 -6 322 -8z m2787 -73 c8 -11 13
-13 14 -5 0 10 156 12 768 11 860 -1 803 6 582 -73 l-115 -41 -575 -7 c-316
-4 -663 -10 -770 -13 -224 -6 -905 7 -915 17 -4 4 -5 19 -1 33 6 24 8 25 99
26 50 0 112 4 137 8 l45 8 -48 2 c-29 1 -46 5 -42 11 3 6 0 10 -7 10 -10 0
-10 2 1 9 8 5 21 7 29 3 10 -3 13 -1 8 6 -5 9 88 12 385 12 361 0 393 -1 405
-17z"/>
<path d="M9024 4550 c38 -4 83 -4 100 1 20 4 -5 7 -69 7 -98 -1 -99 -1 -31 -8z"/>
<path d="M8160 3823 c-83 -6 -80 -19 3 -15 52 2 68 0 57 -7 -8 -6 -30 -11 -47
-11 -18 0 -33 -4 -33 -10 0 -5 16 -10 35 -10 22 0 38 -6 41 -15 4 -8 12 -15
20 -15 10 0 14 12 12 45 -1 35 -5 45 -17 43 -9 -1 -41 -3 -71 -5z"/>
<path d="M7807 3765 c3 -14 10 -25 15 -25 13 0 6 43 -8 47 -7 2 -10 -6 -7 -22z"/>
<path d="M7770 3760 c0 -11 5 -20 10 -20 6 0 10 9 10 20 0 11 -4 20 -10 20 -5
0 -10 -9 -10 -20z"/>
<path d="M5601 3714 c7 -9 5 -14 -8 -17 -10 -3 7 -5 37 -4 30 0 43 2 28 4 -18
3 -25 9 -21 19 4 10 -2 13 -20 12 -19 -2 -23 -6 -16 -14z"/>
<path d="M9482 3573 c3 -16 21 -18 182 -21 173 -2 206 2 206 29 0 5 -88 9
-196 9 -181 0 -195 -1 -192 -17z"/>
<path d="M8230 3485 c0 -22 4 -25 34 -25 30 0 33 2 28 25 -3 20 -10 25 -33 25
-24 0 -29 -4 -29 -25z"/>
<path d="M8250 3234 c0 -45 24 -42 28 4 2 24 -1 32 -12 32 -12 0 -16 -10 -16
-36z"/>
<path d="M8545 3238 c-71 -5 -138 -9 -147 -9 -10 0 -20 -4 -22 -8 -8 -12 414
0 479 14 l60 13 -120 -1 c-66 0 -178 -4 -250 -9z"/>
<path d="M8258 2995 c-4 -19 -1 -25 13 -25 21 0 26 16 7 23 -10 4 -10 6 0 6
17 1 15 21 -2 21 -7 0 -16 -11 -18 -25z"/>
<path d="M9818 2883 c18 -2 45 -2 60 0 15 2 0 4 -33 4 -33 0 -45 -2 -27 -4z"/>
<path d="M8235 2830 c-8 -26 7 -45 30 -36 21 8 16 50 -7 54 -10 2 -19 -5 -23
-18z"/>
<path d="M6603 2679 c4 -13 7 -27 7 -31 0 -13 517 -9 584 3 92 17 94 18 71 32
-14 8 -121 13 -344 15 l-324 4 6 -23z"/>
<path d="M4658 2583 c-64 -5 -62 -23 2 -23 38 0 50 4 50 15 0 8 -1 14 -2 13
-2 -1 -24 -3 -50 -5z"/>
<path d="M8118 2578 c8 -8 40 -12 87 -11 41 1 77 -3 80 -8 10 -14 45 -10 45 5
0 9 13 16 33 19 17 2 -33 5 -112 5 -113 2 -142 -1 -133 -10z"/>
<path d="M6626 2528 c-13 -50 -22 -48 254 -48 l260 0 6 26 c4 17 2 29 -7 35
-8 5 -125 9 -260 9 l-247 0 -6 -22z"/>
<path d="M6490 2531 c0 -5 12 -11 28 -14 15 -3 35 -9 45 -12 13 -6 17 -2 17
14 0 18 -6 21 -45 21 -25 0 -45 -4 -45 -9z"/>
<path d="M8271 2513 c-13 -3 -26 -13 -28 -24 -3 -10 -12 -19 -19 -19 -8 0 -14
-4 -14 -8 0 -4 44 -9 98 -10 l98 -3 -1 28 c0 23 -5 29 -29 31 -16 2 -32 0 -35
-5 -11 -15 -51 -33 -51 -24 0 6 5 13 10 16 12 7 14 26 3 24 -5 -1 -19 -4 -32
-6z"/>
<path d="M4918 2383 c7 -3 16 -2 19 1 4 3 -2 6 -13 5 -11 0 -14 -3 -6 -6z"/>
<path d="M4958 2373 c7 -3 16 -2 19 1 4 3 -2 6 -13 5 -11 0 -14 -3 -6 -6z"/>
<path d="M10688 2173 c12 -2 30 -2 40 0 9 3 -1 5 -23 4 -22 0 -30 -2 -17 -4z"/>
<path d="M7870 1546 c0 -25 323 -36 347 -13 19 19 -34 27 -184 27 -133 0 -163
-3 -163 -14z"/>
<path d="M13365 4549 c-9 -26 3 -89 15 -89 13 0 13 97 1 105 -5 3 -13 -4 -16
-16z"/>
<path d="M585 4310 c-3 -5 -1 -10 4 -10 6 0 11 5 11 10 0 6 -2 10 -4 10 -3 0
-8 -4 -11 -10z"/>
<path d="M12872 3508 c5 -15 28 -18 29 -3 0 6 -7 12 -17 13 -10 3 -15 -1 -12
-10z"/>
<path d="M12725 3270 c-7 -12 2 -30 16 -30 5 0 9 9 9 20 0 21 -15 27 -25 10z"/>
<path d="M1070 3200 c0 -13 7 -20 20 -20 23 0 26 10 8 28 -18 18 -28 15 -28
-8z"/>
<path d="M12686 3213 c-4 -5 -19 -8 -32 -8 -42 0 -31 -20 14 -23 37 -3 42 -1
42 17 0 21 -11 27 -24 14z"/>
<path d="M12730 3200 c0 -5 5 -10 10 -10 6 0 10 5 10 10 0 6 -4 10 -10 10 -5
0 -10 -4 -10 -10z"/>
<path d="M1230 2960 c0 -11 5 -20 10 -20 6 0 10 9 10 20 0 11 -4 20 -10 20 -5
0 -10 -9 -10 -20z"/>
<path d="M1317 2884 c-13 -13 -7 -24 14 -24 11 0 19 5 17 12 -5 14 -22 21 -31
12z"/>
<path d="M1615 2841 c-7 -12 12 -24 25 -16 11 7 4 25 -10 25 -5 0 -11 -4 -15
-9z"/>
<path d="M1712 2744 c-23 -16 -29 -34 -12 -34 6 0 10 7 10 15 0 9 9 15 25 15
14 0 25 5 25 10 0 15 -22 12 -48 -6z"/>
<path d="M12410 2725 c0 -8 5 -15 10 -15 6 0 10 7 10 15 0 8 -4 15 -10 15 -5
0 -10 -7 -10 -15z"/>
<path d="M2590 2580 l0 -40 40 0 40 0 0 40 0 40 -40 0 -40 0 0 -40z"/>
<path d="M13035 2611 c-3 -5 -1 -12 4 -15 5 -3 11 1 15 9 6 16 -9 21 -19 6z"/>
<path d="M12997 2533 c-4 -3 -7 -22 -7 -42 l1 -36 14 25 c22 39 16 78 -8 53z"/>
<path d="M12960 2415 c-7 -8 -16 -13 -20 -10 -3 2 -17 -3 -29 -11 -17 -13 -21
-22 -16 -44 5 -22 1 -31 -16 -43 -12 -9 -28 -13 -37 -10 -9 4 -13 2 -9 -4 7
-11 -47 -73 -63 -73 -10 0 -24 -39 -17 -47 3 -3 19 -2 36 2 41 9 99 77 151
175 40 78 46 96 20 65z"/>
<path d="M1873 2364 c-7 -19 4 -31 40 -39 32 -8 38 10 6 20 -16 5 -18 10 -8
21 9 11 7 14 -10 14 -12 0 -24 -7 -28 -16z"/>
<path d="M1980 2370 c0 -5 9 -10 20 -10 11 0 20 5 20 10 0 6 -9 10 -20 10 -11
0 -20 -4 -20 -10z"/>
<path d="M12810 2360 c0 -5 5 -10 10 -10 6 0 10 5 10 10 0 6 -4 10 -10 10 -5
0 -10 -4 -10 -10z"/>
<path d="M2085 2341 l-40 -7 52 -8 c58 -9 105 0 82 15 -15 10 -34 9 -94 0z"/>
<path d="M1865 2300 c-8 -13 20 -24 41 -16 8 3 12 10 9 16 -8 13 -42 13 -50 0z"/>
<path d="M1888 2253 c7 -3 16 -2 19 1 4 3 -2 6 -13 5 -11 0 -14 -3 -6 -6z"/>
<path d="M1870 2080 c0 -11 5 -20 10 -20 6 0 10 9 10 20 0 11 -4 20 -10 20 -5
0 -10 -9 -10 -20z"/>
<path d="M1948 2073 c7 -3 16 -2 19 1 4 3 -2 6 -13 5 -11 0 -14 -3 -6 -6z"/>
<path d="M12437 2063 c-11 -10 -8 -91 3 -98 6 -4 17 -2 24 4 7 6 16 8 19 4 4
-3 7 -1 7 5 0 6 -9 16 -21 22 -16 9 -18 14 -9 26 20 23 -3 58 -23 37z"/>
<path d="M12439 1898 c-18 -31 -19 -43 -13 -168 4 -82 11 -138 18 -142 33 -22
36 -10 34 145 -1 83 2 162 6 175 12 35 -21 28 -45 -10z"/>
<path d="M2090 1910 c0 -5 5 -10 10 -10 6 0 10 5 10 10 0 6 -4 10 -10 10 -5 0
-10 -4 -10 -10z"/>
<path d="M2517 1643 c-12 -12 -7 -22 8 -17 8 4 15 10 15 15 0 11 -14 12 -23 2z"/>
<path d="M11250 1600 c0 -5 9 -10 20 -10 11 0 20 5 20 10 0 6 -9 10 -20 10
-11 0 -20 -4 -20 -10z"/>
<path d="M11039 1439 c-10 -6 -11 -11 -2 -20 11 -11 53 -4 53 11 0 12 -36 19
-51 9z"/>
<path d="M11120 1430 c0 -5 5 -10 10 -10 6 0 10 5 10 10 0 6 -4 10 -10 10 -5
0 -10 -4 -10 -10z"/>
<path d="M10150 814 c-10 -11 -10 -17 0 -28 15 -19 40 -10 40 14 0 24 -25 33
-40 14z"/>
<path d="M4080 619 c0 -5 5 -7 10 -4 6 3 10 8 10 11 0 2 -4 4 -10 4 -5 0 -10
-5 -10 -11z"/>
<path d="M4310 507 c0 -23 4 -25 55 -29 40 -2 55 1 55 10 0 13 -25 25 -77 37
-30 6 -33 5 -33 -18z"/>
<path d="M4554 492 c5 -8 -1 -12 -16 -13 -18 -1 -19 -2 -4 -6 23 -6 43 12 25
22 -8 5 -10 4 -5 -3z"/>
<path d="M4270 470 c0 -5 5 -10 10 -10 6 0 10 5 10 10 0 6 -4 10 -10 10 -5 0
-10 -4 -10 -10z"/>
<path d="M9410 470 c0 -5 7 -10 15 -10 8 0 15 5 15 10 0 6 -7 10 -15 10 -8 0
-15 -4 -15 -10z"/>
<path d="M9510 470 c0 -5 7 -10 15 -10 8 0 15 5 15 10 0 6 -7 10 -15 10 -8 0
-15 -4 -15 -10z"/>
<path d="M4750 371 c0 -16 17 -21 49 -15 44 9 38 24 -9 24 -22 0 -40 -4 -40
-9z"/>
<path d="M4905 351 c-7 -12 12 -24 25 -16 11 7 4 25 -10 25 -5 0 -11 -4 -15
-9z"/>
<path d="M4910 310 c-12 -8 -9 -10 13 -10 16 0 26 4 22 10 -8 12 -16 12 -35 0z"/>
<path d="M5565 180 c3 -5 8 -10 11 -10 2 0 4 5 4 10 0 6 -5 10 -11 10 -5 0 -7
-4 -4 -10z"/>
<path d="M5287 174 c-11 -11 5 -34 24 -34 12 0 19 7 19 20 0 19 -28 28 -43 14z"/>
</g>
</svg>
